<svg width="219" height="52" viewBox="0 0 219 52" fill="none" xmlns="http://www.w3.org/2000/svg">
<g clip-path="url(#clip0_141_282)">
<path fill-rule="evenodd" clip-rule="evenodd" d="M64.0451 35.5152C63.4222 36.25 62.7844 36.9758 62.1316 37.6919C60.8771 39.0674 58.7418 39.1691 57.3622 37.9184C57.2538 37.8201 57.1515 37.715 57.0571 37.6035L56.0935 36.4689L54.6351 34.7456C53.2322 33.0876 50.747 32.8775 49.0842 34.2766C48.9154 34.4188 48.7588 34.5747 48.6163 34.7428L44.076 40.0995L40.8787 43.8717C39.0731 46.0023 35.8776 46.2692 33.7414 44.4688C33.5256 44.2867 33.3253 44.087 33.1424 43.8717L32.3697 42.9597L29.4267 39.4876C28.0225 37.831 25.537 37.6232 23.8755 39.0236C23.7078 39.1655 23.552 39.3206 23.4102 39.4876L19.2568 44.3881L14.2062 50.3467C12.6014 52.2402 9.76068 52.478 7.86173 50.8774C7.70099 50.742 7.55013 50.5954 7.40968 50.4385C6.37008 49.2775 5.34505 48.1009 4.33536 46.9093C3.37171 45.7727 2.42184 44.6218 1.4855 43.458C-0.494603 40.9967 -0.495123 37.4945 1.48368 35.0322C8.10232 26.7976 13.9349 19.703 18.9823 13.7486C21.5745 10.69 24.1926 7.65752 26.8362 4.65076C31.7541 -0.942044 40.287 -1.50049 45.8952 3.40365C46.3306 3.78442 46.741 4.19269 47.1236 4.62612C50.1251 8.02247 52.7583 11.057 55.0229 13.7289C58.4375 17.7571 61.7766 21.8605 65.04 26.0392C66.9756 28.5173 66.9358 32.0003 64.9448 34.4341C64.6472 34.7983 64.3473 35.1585 64.0451 35.5152Z" fill="#7D79FF"/>
<path fill-rule="evenodd" clip-rule="evenodd" d="M104.575 24.7018C104.32 25.0118 104.073 25.2579 103.835 25.4395C103.598 25.6221 103.26 25.7129 102.822 25.7129C102.401 25.7129 102.022 25.613 101.684 25.4123C101.346 25.212 100.967 24.9887 100.547 24.7425C100.126 24.4966 99.6329 24.2736 99.0667 24.0731C98.5002 23.8728 97.7963 23.7724 96.9565 23.7724C95.9148 23.7724 95.0149 23.9639 94.257 24.3462C93.4983 24.729 92.8725 25.2756 92.3791 25.9863C91.886 26.697 91.5205 27.5675 91.2828 28.5967C91.0451 29.6262 90.9267 30.7877 90.9267 32.0815C90.9267 34.7964 91.4519 36.8829 92.5026 38.3406C93.5529 39.7989 95.0008 40.527 96.8467 40.527C97.8333 40.527 98.6144 40.4043 99.1902 40.1581C99.7658 39.9122 100.255 39.6389 100.657 39.3382C101.058 39.0373 101.428 38.7601 101.766 38.5046C102.105 38.2496 102.529 38.122 103.041 38.122C103.717 38.122 104.228 38.3681 104.575 38.8599L107.042 41.8939C106.165 42.8959 105.242 43.7117 104.274 44.3399C103.306 44.9686 102.314 45.4607 101.3 45.8163C100.287 46.1714 99.2675 46.4173 98.2445 46.554C97.221 46.6907 96.2254 46.7589 95.2568 46.7589C93.5209 46.7589 91.8631 46.431 90.2827 45.7751C88.7021 45.1188 87.313 44.1669 86.1165 42.9187C84.9196 41.6709 83.9694 40.1356 83.2659 38.3134C82.5626 36.4915 82.2109 34.4141 82.2109 32.0815C82.2109 30.0409 82.5165 28.1319 83.1288 26.3554C83.7413 24.5786 84.6454 23.0392 85.8424 21.736C87.0388 20.4334 88.519 19.4086 90.2827 18.661C92.0456 17.9143 94.0877 17.5408 96.4082 17.5408C98.6372 17.5408 100.592 17.8959 102.274 18.6063C103.954 19.3173 105.47 20.3558 106.823 21.7225L104.575 24.7018Z" fill="black"/>
<path fill-rule="evenodd" clip-rule="evenodd" d="M111.866 46.3216H120.362V5.40479H111.866V46.3216Z" fill="black"/>
<path fill-rule="evenodd" clip-rule="evenodd" d="M127.926 46.3217H136.422V17.9779H127.926V46.3217ZM137.409 10.2156C137.409 10.89 137.272 11.5235 136.998 12.1151C136.724 12.7078 136.349 13.2268 135.874 13.6732C135.399 14.1199 134.846 14.4752 134.216 14.7393C133.586 15.0036 132.914 15.1356 132.201 15.1356C131.506 15.1356 130.858 15.0036 130.255 14.7393C129.652 14.4752 129.118 14.1199 128.652 13.6732C128.186 13.2268 127.82 12.7078 127.556 12.1151C127.291 11.5235 127.158 10.89 127.158 10.2156C127.158 9.52336 127.291 8.87646 127.556 8.27495C127.82 7.67344 128.186 7.14534 128.652 6.6896C129.118 6.23439 129.652 5.87903 130.255 5.62354C130.858 5.36883 131.506 5.24121 132.201 5.24121C132.914 5.24121 133.586 5.36883 134.216 5.62354C134.846 5.87903 135.399 6.23439 135.874 6.6896C136.349 7.14534 136.724 7.67344 136.998 8.27495C137.272 8.87646 137.409 9.52336 137.409 10.2156Z" fill="black"/>
<path fill-rule="evenodd" clip-rule="evenodd" d="M143.712 46.3216V17.9778H148.974C149.504 17.9778 149.948 18.0966 150.303 18.3332C150.66 18.57 150.911 18.9256 151.057 19.3992L151.523 20.9296C151.998 20.4378 152.492 19.987 153.004 19.5769C153.515 19.1671 154.068 18.8112 154.662 18.5109C155.255 18.2102 155.895 17.9734 156.58 17.8004C157.265 17.6274 158.019 17.5408 158.841 17.5408C160.558 17.5408 161.979 17.9828 163.103 18.8662C164.227 19.7502 165.08 20.9296 165.666 22.4057C166.14 21.5311 166.721 20.7841 167.406 20.1644C168.091 19.5453 168.831 19.0439 169.626 18.661C170.421 18.2787 171.261 17.9962 172.148 17.8139C173.033 17.6318 173.915 17.5408 174.793 17.5408C176.418 17.5408 177.862 17.7823 179.123 18.2647C180.383 18.7479 181.439 19.4496 182.288 20.3693C183.138 21.2899 183.782 22.4195 184.22 23.7587C184.659 25.0979 184.878 26.615 184.878 28.3096V46.3216H176.382V28.3096C176.382 25.3759 175.121 23.9091 172.6 23.9091C171.449 23.9091 170.494 24.2876 169.736 25.0434C168.977 25.7995 168.598 26.8884 168.598 28.3096V46.3216H160.102V28.3096C160.102 26.6879 159.782 25.5489 159.143 24.893C158.503 24.237 157.562 23.9091 156.32 23.9091C155.552 23.9091 154.826 24.0824 154.141 24.4284C153.455 24.7747 152.811 25.2392 152.209 25.8223V46.3216H143.712Z" fill="black"/>
<path fill-rule="evenodd" clip-rule="evenodd" d="M205.214 23.9091C204.593 23.9091 204.031 23.9683 203.529 24.0868C203.026 24.2053 202.56 24.3739 202.131 24.5923C201.702 24.811 201.304 25.089 200.939 25.426C200.573 25.7632 200.208 26.1504 199.842 26.5875V38.6138C200.482 39.3247 201.176 39.8212 201.925 40.1037C202.674 40.3861 203.46 40.527 204.282 40.527C205.068 40.527 205.79 40.3726 206.448 40.0624C207.105 39.7527 207.676 39.2565 208.161 38.573C208.644 37.8896 209.024 37.0014 209.298 35.9081C209.572 34.8148 209.709 33.4847 209.709 31.9175C209.709 30.4235 209.599 29.1663 209.38 28.1456C209.161 27.1255 208.855 26.3006 208.462 25.6721C208.069 25.0437 207.598 24.5923 207.05 24.3192C206.502 24.0458 205.89 23.9091 205.214 23.9091ZM191.346 46.3216V5.40503H199.842V20.9846C200.902 19.9457 202.104 19.1124 203.447 18.4836C204.789 17.8549 206.365 17.5408 208.175 17.5408C209.654 17.5408 211.024 17.8595 212.285 18.4974C213.546 19.1352 214.633 20.069 215.547 21.2989C216.46 22.5289 217.178 24.0367 217.699 25.8223C218.219 27.6084 218.48 29.6399 218.48 31.9175C218.48 34.0494 218.183 36.0173 217.589 37.8216C216.995 39.6254 216.163 41.1925 215.095 42.5224C214.026 43.8528 212.747 44.8916 211.258 45.6384C209.768 46.3851 208.119 46.7589 206.31 46.7589C205.47 46.7589 204.716 46.6769 204.049 46.5133C203.382 46.3491 202.77 46.1167 202.213 45.8163C201.656 45.5154 201.144 45.1559 200.678 44.7365C200.213 44.3176 199.76 43.8618 199.322 43.3698L199.02 44.7912C198.892 45.3746 198.659 45.7751 198.321 45.9937C197.983 46.2121 197.54 46.3216 196.992 46.3216H191.346Z" fill="black"/>
</g>
<defs>
<clipPath id="clip0_141_282">
<rect width="219" height="52" fill="white"/>
</clipPath>
</defs>
</svg>
