<svg width="64" height="64" viewBox="0 0 64 64" fill="none" xmlns="http://www.w3.org/2000/svg">
<path d="M32.0001 55.9001C18.8001 55.9001 8.1001 45.2001 8.1001 32.0001C8.1001 18.8001 18.8001 8.1001 32.0001 8.1001C45.2001 8.1001 55.9001 18.8001 55.9001 32.0001C55.9001 45.2001 45.2001 55.9001 32.0001 55.9001ZM32.0001 10.7001C20.3001 10.7001 10.7001 20.3001 10.7001 32.0001C10.7001 43.7001 20.3001 53.3001 32.0001 53.3001C43.7001 53.3001 53.3001 43.7001 53.3001 32.0001C53.3001 20.3001 43.7001 10.7001 32.0001 10.7001Z" fill="#134563"/>
<path d="M19.3 30.6001H44.7001V33.4001H19.3V30.6001Z" fill="#134563"/>
<path d="M30.6001 19.3H33.4001V44.7001H30.6001V19.3Z" fill="#134563"/>
</svg>
