<svg width="1843" height="462" viewBox="0 0 1843 462" fill="none" xmlns="http://www.w3.org/2000/svg">
<g opacity="0.3">
<path d="M622.659 461.344C613.567 461.344 604.718 460.967 596.214 460.215C578.379 458.638 561.901 455.399 547.239 450.587C531.479 445.418 517.657 438.374 506.152 429.652C483.031 412.121 471.463 391.126 460.275 370.821C458.077 366.834 455.805 362.712 453.498 358.712C437.756 331.449 417.8 307.568 392.494 285.704C342.014 242.09 271.021 204.869 187.188 178.065C90.2363 147.067 -14.0029 131.626 -106.33 134.586C-160.595 136.327 -232.294 152.882 -264.338 181.155C-283.355 197.935 -284.888 216.556 -268.77 235.002L-269.09 235.08C-277.541 225.406 -281.224 215.707 -280.031 206.254C-278.937 197.582 -273.76 189.105 -264.641 181.059C-250.136 168.261 -226.216 156.918 -195.467 148.255C-167.052 140.251 -135.405 135.331 -106.351 134.399C-58.0332 132.851 -6.64514 136.287 46.3854 144.613C94.4568 152.162 141.892 163.362 187.371 177.903C271.253 204.723 342.288 241.964 392.797 285.604C418.116 307.482 438.083 331.377 453.836 358.654C456.146 362.654 458.418 366.779 460.613 370.766C471.79 391.055 483.351 412.035 506.441 429.541C528.771 446.472 558.996 456.729 596.274 460.026C647.898 464.592 710.586 455.042 763.961 434.478C840.88 404.845 894.262 361.712 945.889 320C954.939 312.689 964.294 305.129 973.558 297.829C997.608 278.872 1030.18 254.308 1068.89 232.424C1108.46 210.055 1148.66 193.621 1191.81 182.18C1218.22 175.176 1246.21 170.458 1275 168.157C1301.59 166.029 1329.74 165.898 1358.66 167.761C1408.27 170.959 1461.71 179.993 1522.05 195.377C1640.86 225.671 1759.54 262.441 1874.8 304.669C1984.34 344.804 2091.78 390.22 2194.13 439.651L2193.89 439.788C1981.73 337.32 1755.64 255.145 1521.9 195.544C1389.84 161.872 1285 157.677 1191.97 182.345C1097.32 207.44 1031.2 252.728 973.85 297.931C964.59 305.229 955.234 312.789 946.185 320.1C894.543 361.827 841.143 404.973 764.172 434.626C739.299 444.21 711.318 451.684 683.255 456.241C668.43 458.649 653.694 460.223 639.45 460.921C633.773 461.205 628.17 461.344 622.659 461.344Z" fill="white" fill-opacity="0.35"/>
<path d="M631.548 450.948C608.363 450.948 586.888 448.618 567.695 444.02C546.294 438.894 527.826 430.949 512.801 420.41C511.471 419.477 510.152 418.511 508.879 417.539C486.004 400.084 473.923 379.362 462.243 359.321C459.879 355.271 457.439 351.081 454.963 347.016C440.215 322.812 422.458 301.48 400.669 281.803C397.986 279.38 395.207 276.953 392.404 274.588C341.181 231.349 269.612 194.599 185.435 168.311C87.7828 137.842 -16.7518 123.039 -108.913 126.631C-162.785 128.753 -234.153 145.578 -266.334 173.634C-285.604 190.434 -287.785 209.092 -272.648 227.592L-272.971 227.666C-280.906 217.97 -284.166 208.253 -282.657 198.789C-281.271 190.096 -275.883 181.601 -266.637 173.538C-251.985 160.762 -228.135 149.406 -197.674 140.699C-169.52 132.65 -138.01 127.589 -108.945 126.445C-60.6872 124.565 -9.24286 127.672 43.9565 135.68C92.144 142.933 139.804 153.859 185.61 168.151C269.837 194.454 341.445 231.227 392.7 274.49C395.503 276.856 398.285 279.286 400.968 281.71C422.771 301.4 440.539 322.744 455.293 346.961C457.773 351.026 460.213 355.215 462.577 359.267C474.254 379.295 486.324 400.002 509.168 417.433C510.437 418.402 511.756 419.367 513.082 420.299C544.131 442.084 586.793 450.948 631.657 450.948C631.903 450.948 632.146 450.948 632.392 450.948C632.111 450.946 631.829 450.948 631.548 450.948ZM641.118 450.818C682.827 449.687 725.866 441.229 762.788 428.646C842.432 401.392 899.673 359.299 955.031 318.591C957.311 316.914 959.59 315.239 961.869 313.565C966.874 309.89 972.807 305.539 978.863 301.153C1006.03 281.483 1038.91 258.597 1076.78 237.998C1117.07 216.079 1157.33 199.813 1199.84 188.27C1225.96 181.185 1253.56 176.194 1281.89 173.435C1308.13 170.88 1335.86 170.158 1364.3 171.288C1413.44 173.242 1466.27 180.652 1525.83 193.942C1583.89 206.879 1631.61 219.058 1676.02 232.268C1738.94 251 1798.86 272.583 1849.19 291.225C1966.19 334.688 2080.99 384.041 2190.4 437.914L2190.16 438.049C2080.76 384.184 1965.97 334.835 1848.99 291.377C1798.67 272.737 1738.75 251.158 1675.85 232.431C1631.45 219.225 1583.74 207.05 1525.69 194.117C1395.96 165.164 1292.47 163.358 1200 188.437C1104.03 214.493 1035.68 260.338 979.148 301.264C973.088 305.65 967.158 309.999 962.154 313.676C959.874 315.349 957.595 317.025 955.316 318.703C899.94 359.423 842.678 401.531 762.978 428.806C743.215 435.54 722.187 440.889 700.472 444.703C680.26 448.251 660.335 450.302 641.118 450.818Z" fill="white" fill-opacity="0.35"/>
<path d="M641.35 440.789C638.561 440.789 635.789 440.758 633.039 440.693C609.875 440.153 588.439 437.348 569.327 432.353C548.425 426.891 530.316 418.8 515.505 408.303C514.19 407.368 512.878 406.401 511.612 405.428C488.993 388.058 476.409 367.613 464.244 347.843C461.708 343.722 459.084 339.461 456.425 335.325C440.95 311.203 422.725 290.041 400.701 270.629C397.975 268.229 395.154 265.822 392.309 263.476C340.344 220.614 268.198 184.335 183.676 158.563C85.3276 128.623 -19.5024 114.457 -111.502 118.68C-163.302 121.094 -234.463 136.961 -268.297 166.087C-287.845 182.915 -290.69 201.623 -276.527 220.188L-276.854 220.257C-284.275 210.531 -287.107 200.792 -285.278 191.311C-283.596 182.59 -277.983 174.073 -268.596 165.991C-253.789 153.245 -230.017 141.885 -199.848 133.137C-171.957 125.05 -140.592 119.851 -111.534 118.496C-63.3323 116.285 -11.8317 119.062 41.533 126.75C89.8401 133.711 137.722 144.359 183.852 158.403C268.423 184.192 340.608 220.491 392.604 263.377C395.45 265.725 398.274 268.133 401 270.536C423.034 289.959 441.27 311.134 456.752 335.269C459.411 339.407 462.035 343.668 464.571 347.789C476.733 367.548 489.306 387.978 511.897 405.328C513.163 406.3 514.468 407.266 515.783 408.197C575.964 450.848 682.616 446.269 761.613 422.813C844.581 397.961 906.239 356.656 965.867 316.712L966.479 316.301C972.254 312.43 978.226 308.428 984.17 304.476C1046.89 262.787 1115.83 219.943 1207.87 194.356C1233.71 187.188 1260.94 181.924 1288.78 178.711C1314.69 175.723 1342 174.41 1369.96 174.811C1418.7 175.509 1470.92 181.297 1529.61 192.504C1591.28 204.24 1637.69 215.028 1680.09 227.485C1740.51 245.269 1799.03 267.741 1850.66 287.568C1965.61 331.951 2078.66 381.948 2186.67 436.168L2186.42 436.301C2078.43 382.087 1965.39 332.095 1850.45 287.717C1798.83 267.893 1740.32 245.425 1679.92 227.646C1637.54 215.194 1591.14 204.409 1529.49 192.677C1402.28 168.383 1300.13 168.968 1208.03 194.518C1116.05 220.088 1047.14 262.913 984.445 304.587C978.501 308.539 972.529 312.543 966.754 316.413L966.142 316.823C936.426 336.728 905.701 357.311 872.52 375.696C835.232 396.357 799.01 411.82 761.782 422.97C722.834 434.534 680.407 440.789 641.35 440.789Z" fill="white" fill-opacity="0.35"/>
<path d="M2182.7 434.551C2076.11 379.988 1964.82 329.354 1851.92 284.056C1847.14 282.152 1842.35 280.238 1837.54 278.319C1788.64 258.789 1738.07 238.594 1684 222.861C1631.54 207.641 1578.38 198.334 1533.29 191.238C1408.83 171.53 1308.04 174.505 1216.08 200.599C1121.67 227.464 1048.53 272.069 989.752 307.912C986.224 310.063 982.703 312.218 979.176 314.375C976.573 315.967 973.967 317.56 971.361 319.151C937.896 339.579 907.455 357.844 873.821 374.51C835.397 393.549 798.362 407.492 760.593 417.138C725.197 426.18 687.385 430.963 652.214 430.965C645.806 430.965 639.492 430.807 633.288 430.486C610.638 429.315 589.669 426.024 570.966 420.704C550.556 414.9 532.805 406.655 518.199 396.197C516.894 395.26 515.593 394.291 514.334 393.316C491.983 376.038 478.91 355.88 466.269 336.387C463.547 332.188 460.73 327.845 457.881 323.629C441.667 299.583 422.97 278.59 400.728 259.45C397.961 257.068 395.094 254.683 392.21 252.357C339.5 209.872 266.78 174.065 181.917 148.807C82.8724 119.396 -22.2496 105.87 -114.088 110.719C-176.871 114.099 -241.072 133.748 -270.214 158.499C-290.068 175.362 -293.589 194.13 -280.403 212.773L-280.734 212.838C-287.638 203.077 -290.044 193.308 -287.884 183.802C-285.897 175.051 -280.052 166.505 -270.513 158.401C-255.552 145.692 -231.857 134.332 -201.99 125.553C-174.367 117.432 -143.163 112.098 -114.123 110.535C-65.9775 107.992 -14.4242 110.44 39.1058 117.809C87.529 124.476 135.639 134.85 182.093 148.643C267.009 173.917 339.767 209.744 392.509 252.255C395.397 254.583 398.263 256.97 401.031 259.351C423.287 278.503 441.991 299.507 458.215 323.564C461.064 327.782 463.881 332.123 466.603 336.324C479.237 355.806 492.303 375.95 514.626 393.209C515.885 394.181 517.182 395.148 518.484 396.084C581.309 441.066 688.091 435.447 760.441 416.969C846.761 394.922 912.815 354.603 971.097 319.028C973.703 317.435 976.306 315.843 978.912 314.252C982.436 312.095 985.96 309.94 989.488 307.789C1023.04 287.331 1056.17 267.449 1092.59 249.129C1134.48 228.06 1174.82 212.133 1215.91 200.435C1241.48 193.18 1268.32 187.643 1295.69 183.981C1321.26 180.556 1348.16 178.655 1375.62 178.329C1424.05 177.753 1475.66 181.918 1533.4 191.06C1578.5 198.16 1631.69 207.47 1684.17 222.7C1738.27 238.438 1788.85 258.638 1837.76 278.172C1842.56 280.092 1847.36 282.005 1852.14 283.91C1965.04 329.211 2076.35 379.85 2182.95 434.419L2182.7 434.551Z" fill="white" fill-opacity="0.35"/>
<path d="M2178.97 432.802C2071.77 376.847 1962.24 325.569 1853.39 280.396C1846.88 277.693 1840.21 274.907 1833.77 272.214C1787.62 252.925 1739.91 232.979 1688.08 218.076C1636.32 203.247 1582.71 195.459 1537.09 189.797C1415.66 174.583 1316.21 179.947 1224.12 206.679C1136.27 232.27 1067.45 270.751 1000.9 307.965L993.593 312.051C987.821 315.278 981.853 318.614 975.969 321.886C909.348 358.887 842.657 393.565 759.404 411.302C739.202 415.607 718.458 418.59 697.743 420.173C675.497 421.871 653.888 421.895 633.514 420.243C611.384 418.448 590.89 414.679 572.602 409.038C552.699 402.9 535.303 394.504 520.904 384.088C519.606 383.145 518.315 382.174 517.067 381.201C494.99 364.024 481.446 344.164 468.348 324.956C465.426 320.67 462.401 316.238 459.348 311.934C442.382 287.962 423.221 267.137 400.768 248.272C397.961 245.914 395.052 243.548 392.123 241.241C338.67 199.132 265.378 163.797 180.166 139.052C80.4214 110.174 -24.996 97.2854 -116.676 102.763C-178.886 106.559 -242.795 126.345 -272.085 150.882C-292.27 167.787 -296.486 186.627 -284.282 205.365L-284.616 205.426C-291.003 195.622 -292.976 185.816 -290.483 176.283C-288.183 167.494 -282.095 158.915 -272.387 150.785C-257.264 138.119 -233.654 126.77 -204.103 117.965C-176.755 109.814 -145.72 104.352 -116.718 102.581C-68.6289 99.7076 -17.0228 101.826 36.676 108.875C85.2187 115.249 133.55 125.347 180.331 138.891C265.592 163.648 338.927 199.006 392.411 241.138C395.341 243.447 398.253 245.816 401.06 248.173C423.527 267.048 442.698 287.884 459.672 311.869C462.725 316.173 465.749 320.607 468.672 324.893C481.762 344.089 495.3 363.941 517.352 381.097C518.597 382.066 519.888 383.035 521.182 383.978C582.495 428.334 684.371 427.089 759.267 411.132C842.453 393.409 909.116 358.744 975.708 321.76C981.592 318.488 987.561 315.152 993.332 311.924L1000.64 307.839C1033.31 289.573 1067.09 270.683 1103.78 253.111C1145.33 233.209 1184.63 217.968 1223.94 206.516C1249.25 199.169 1275.71 193.359 1302.58 189.25C1327.84 185.385 1354.31 182.894 1381.26 181.846C1429.48 179.969 1480.48 182.512 1537.17 189.616C1582.81 195.281 1636.45 203.071 1688.24 217.912C1740.1 232.821 1787.83 252.773 1833.98 272.067C1840.43 274.761 1847.09 277.545 1853.6 280.249C1962.46 325.426 2072.01 376.707 2179.21 432.668L2178.97 432.802Z" fill="white" fill-opacity="0.35"/>
<path d="M2175.24 431.054C2068.97 374.476 1961.17 322.556 1854.85 276.737C1846.86 273.294 1838.67 269.714 1830.75 266.252C1787.09 247.171 1741.95 227.44 1692.15 213.294C1640.64 198.72 1586.79 192.511 1540.9 188.361C1422.83 177.519 1324.73 185.274 1232.15 212.764C1151.37 236.854 1085.04 270.996 1020.89 304.013C1014.14 307.488 1007.16 311.08 1000.36 314.56C992.369 318.647 986.266 321.753 980.572 324.626C950.076 340.006 913.765 357.715 875.661 372.446C835.282 388.054 796.865 398.857 758.212 405.472C737.887 408.951 717.231 411.145 696.814 411.991C674.892 412.9 653.667 412.232 633.732 410.003C612.133 407.588 592.118 403.339 574.233 397.376C554.84 390.909 537.807 382.363 523.605 371.98C522.325 371.039 521.041 370.066 519.796 369.09C498.011 352.028 484.013 332.474 470.472 313.563C467.332 309.177 464.085 304.643 460.811 300.238C443.081 276.333 423.453 255.679 400.799 237.094C397.95 234.757 394.999 232.413 392.027 230.124C337.833 188.392 263.963 153.528 178.407 129.298C77.9697 100.951 -27.7432 88.7025 -119.261 94.8055C-171.335 98.3545 -239.348 114.703 -273.907 143.225C-294.454 160.183 -299.385 179.108 -288.162 197.953L-288.496 198.009C-294.366 188.155 -295.899 178.306 -293.058 168.736C-290.434 159.902 -284.093 151.286 -274.203 143.125C-258.917 130.51 -235.395 119.18 -206.172 110.356C-179.097 102.182 -148.249 96.5948 -119.303 94.6218C-71.2706 91.4181 -19.6082 93.2055 34.2524 99.9359C82.9112 106.017 131.468 115.839 178.572 129.135C264.178 153.378 338.089 188.262 392.316 230.018C395.288 232.307 398.242 234.655 401.091 236.994C423.755 255.588 443.394 276.253 461.135 300.169C464.412 304.576 467.659 309.11 470.799 313.496C484.33 332.398 498.324 351.941 520.084 368.984C521.329 369.959 522.61 370.929 523.89 371.868C574.898 409.166 662.456 421.661 758.103 405.292C844.721 390.469 915.38 357.246 980.329 324.489C986.024 321.615 992.122 318.51 1000.11 314.423C1006.91 310.942 1013.89 307.351 1020.64 303.876C1052.22 287.622 1084.87 270.814 1119.7 255.076C1159.09 237.278 1195.82 223.383 1231.98 212.598C1257.05 205.155 1283.12 199.073 1309.48 194.521C1334.45 190.21 1360.5 187.13 1386.92 185.365C1435.02 182.154 1485.41 183.073 1540.96 188.173C1586.87 192.327 1640.76 198.538 1692.32 213.125C1742.15 227.28 1787.3 247.017 1830.97 266.104C1838.89 269.565 1847.09 273.146 1855.08 276.589C1961.4 322.413 2069.21 374.337 2175.49 430.918L2175.24 431.054Z" fill="white" fill-opacity="0.35"/>
<path d="M2171.51 429.305C2066.16 372.103 1960.11 319.539 1856.32 273.077C1847.49 269.126 1838.42 264.977 1829.65 260.966C1787.86 241.859 1744.66 222.102 1696.22 208.51C1644.68 194.11 1590.7 189.516 1544.7 186.921C1431.98 180.393 1332.38 190.835 1240.19 218.845C1166.78 241.248 1103.86 271.219 1043.01 300.205C1030.71 306.059 1018.01 312.114 1005.65 317.885C998.093 321.417 991.396 324.519 985.171 327.366C956.222 340.593 917.714 357.552 876.564 371.412C835.217 385.337 796.111 394.571 757.011 399.641C714.367 405.17 671.806 405.211 633.935 399.761C612.878 396.73 593.337 392.004 575.854 385.714C556.977 378.922 540.306 370.228 526.298 359.876C525.028 358.933 523.755 357.959 522.517 356.983C501.042 340.051 486.608 320.818 472.652 302.219C469.275 297.72 465.786 293.068 462.266 288.548C443.759 264.706 423.662 244.22 400.826 225.922C397.935 223.606 394.942 221.282 391.928 219.014C336.991 177.659 262.549 143.264 176.647 119.552C75.5172 91.7378 -30.4911 80.1276 -121.851 86.8561C-183.765 91.5151 -245.585 111.079 -275.677 135.535C-296.618 152.554 -302.277 171.578 -292.042 190.55L-292.38 190.6C-297.729 180.686 -298.82 170.785 -295.623 161.174C-292.668 152.291 -286.056 143.63 -275.973 135.433C-260.526 122.878 -237.095 111.574 -208.213 102.743C-181.423 94.5517 -150.768 88.8422 -121.9 86.6705C-73.9235 83.1364 -22.2048 84.5954 31.821 91.0046C80.5994 96.7921 129.381 106.34 176.809 119.385C262.76 143.112 337.244 177.525 392.216 218.906C395.23 221.174 398.223 223.5 401.118 225.818C423.965 244.127 444.072 264.623 462.589 288.476C466.11 292.996 469.599 297.649 472.975 302.148C486.924 320.738 501.351 339.962 522.805 356.877C524.043 357.853 525.313 358.824 526.583 359.767C576.715 396.823 662.824 411.661 756.927 399.46C842.715 388.337 917.214 358.169 984.939 327.227C991.161 324.379 997.861 321.28 1005.42 317.747C1017.77 311.977 1030.48 305.924 1042.77 300.07C1103.63 271.078 1166.57 241.1 1240.01 218.687C1264.85 211.138 1290.55 204.784 1316.37 199.799C1341.07 195.032 1366.71 191.363 1392.57 188.892C1440.65 184.298 1490.43 183.595 1544.73 186.739C1590.76 189.336 1644.79 193.932 1696.38 208.348C1744.86 221.95 1788.08 241.714 1829.88 260.829C1838.65 264.84 1847.71 268.987 1856.55 272.938C1960.35 319.403 2066.41 371.971 2171.76 429.177L2171.51 429.305Z" fill="white" fill-opacity="0.35"/>
<path d="M2167.78 427.557C2063.37 369.723 1959.07 316.519 1857.78 269.419C1848.48 265.09 1838.9 260.508 1829.64 256.075C1789.39 236.806 1747.76 216.881 1700.3 203.726C1648.53 189.449 1594.51 186.492 1548.5 185.482C1440.04 182.928 1341.82 195.83 1248.22 224.927C1182.59 245.43 1124.07 271.379 1067.48 296.472C1048.03 305.101 1029.65 313.252 1010.95 321.209C1003.35 324.448 996.423 327.358 989.776 330.104C946.885 347.802 911.201 360.598 877.472 370.373C835.158 382.636 795.366 390.302 755.82 393.807C740.478 395.165 725.193 395.843 710.185 395.843C683.582 395.843 657.841 393.719 634.143 389.513C591.255 381.901 555.881 367.856 529 347.767C527.733 346.815 526.471 345.84 525.247 344.867C504.099 328.082 489.26 309.19 474.91 290.919C471.274 286.289 467.518 281.504 463.73 276.851C444.431 253.064 423.863 232.749 400.862 214.742C397.929 212.446 394.893 210.143 391.837 207.895C336.158 166.917 261.139 132.994 174.893 109.796C73.0699 82.5163 -33.2303 71.5427 -124.432 78.8968C-186.603 84.0142 -246.64 103.207 -277.376 127.793C-298.742 144.883 -305.15 164.02 -295.914 183.136L-296.255 183.182C-301.077 173.2 -301.717 163.24 -298.154 153.579C-294.855 144.636 -287.965 135.927 -277.667 127.691C-262.059 115.205 -238.73 103.938 -210.199 95.1065C-183.698 86.9023 -153.258 81.0815 -124.484 78.713C-76.5643 74.8485 -24.7893 75.9771 29.3983 82.0671C78.2963 87.5631 127.3 96.8364 175.055 109.629C261.35 132.842 336.411 166.783 392.125 207.786C395.182 210.035 398.217 212.339 401.154 214.637C424.169 232.652 444.748 252.979 464.053 276.775C467.841 281.428 471.601 286.215 475.234 290.844C489.577 309.107 504.408 327.991 525.539 344.762C526.763 345.732 528.022 346.707 529.288 347.657C579.484 385.174 662.03 401.927 755.76 393.621C844.985 385.714 924.013 357.001 989.558 329.955C996.202 327.21 1003.13 324.301 1010.73 321.062C1029.42 313.105 1047.8 304.957 1067.26 296.327C1123.85 271.229 1182.38 245.276 1248.05 224.766C1272.7 217.1 1298.01 210.473 1323.27 205.068C1347.74 199.834 1372.95 195.574 1398.22 192.409C1446.41 186.375 1495.57 184.047 1548.51 185.295C1594.57 186.304 1648.63 189.265 1700.46 203.559C1747.96 216.723 1789.61 236.658 1829.88 255.934C1839.14 260.366 1848.71 264.949 1858.01 269.276C1959.3 316.379 2063.61 369.589 2168.03 427.427L2167.78 427.557Z" fill="white" fill-opacity="0.35"/>
<path d="M2164.06 425.809C2059.12 366.516 1959.42 314.163 1859.25 265.759C1849.69 261.141 1840.28 256.424 1830.32 251.431C1791.37 231.912 1751.1 211.73 1704.37 198.943C1651.96 184.671 1595.57 183.483 1552.3 184.044C1448.78 185.209 1351.95 200.573 1256.26 231.012C1198.85 249.363 1145.85 271.401 1094.58 292.715C1067.64 303.917 1042.2 314.496 1016.25 324.535C1008.55 327.518 1001.39 330.236 994.376 332.843C950.902 348.984 914.043 360.578 878.372 369.332C835.077 379.956 794.599 386.054 754.624 387.973C734.084 388.958 713.685 388.773 693.993 387.422C673.144 385.99 653.075 383.245 634.347 379.264C592.835 370.438 558.301 355.769 531.701 335.661C530.445 334.707 529.193 333.731 527.976 332.758C507.183 316.146 491.972 297.614 477.26 279.693C473.335 274.911 469.276 269.967 465.193 265.159C445.086 241.425 424.054 221.278 400.894 203.569C397.915 201.293 394.837 199.01 391.746 196.783C335.325 156.181 259.732 122.73 173.142 100.046C93.2195 79.1958 10.8003 68.3169 -64.7783 68.3169C-86.1445 68.3169 -106.948 69.1856 -127.013 70.9434C-188.435 76.4301 -248.095 95.6914 -279.011 120.014C-300.831 137.184 -308.016 156.45 -299.79 175.73L-300.134 175.771C-304.429 165.711 -304.608 155.682 -300.669 145.965C-297.018 136.957 -289.829 128.191 -279.306 119.91C-263.535 107.502 -240.316 96.2816 -212.151 87.4593C-185.565 79.1308 -156.145 73.3564 -127.076 70.7615C-79.2124 66.5666 -27.3811 67.3666 26.9718 73.1355C75.9858 78.3364 125.218 87.3331 173.296 99.877C259.936 122.574 335.574 156.044 392.031 196.669C395.126 198.897 398.207 201.182 401.186 203.459C424.356 221.178 445.399 241.334 465.517 265.079C469.6 269.887 473.662 274.832 477.587 279.615C492.292 297.528 507.496 316.053 528.272 332.652C529.489 333.623 530.741 334.599 531.993 335.552C581.735 373.152 662.867 392.188 754.596 387.785C847.415 383.329 931.389 355.999 994.179 332.688C1001.19 330.08 1008.35 327.362 1016.05 324.381C1041.99 314.345 1067.44 303.765 1094.37 292.565C1145.64 271.249 1198.66 249.206 1256.09 230.848C1305.35 215.177 1353.69 203.756 1403.88 195.931C1452.28 188.383 1500.83 184.434 1552.3 183.854C1581.66 183.474 1605.61 184.135 1627.69 185.932C1656.19 188.252 1681.32 192.452 1704.54 198.774C1751.32 211.572 1791.6 231.765 1830.57 251.294C1840.53 256.287 1849.94 261.001 1859.49 265.62C1959.67 314.026 2059.38 366.382 2164.32 425.679L2164.06 425.809Z" fill="white" fill-opacity="0.35"/>
<path d="M2160.32 424.06C2056.35 364.117 1958.35 311.141 1860.71 262.098C1851.06 257.246 1841.53 252.248 1831.45 246.956C1793.67 227.128 1754.6 206.624 1708.44 194.158C1655.6 179.953 1599.27 180.521 1556.1 182.601C1458.41 187.147 1362.96 204.972 1264.3 237.09C1215.69 252.992 1169.4 271.19 1124.64 288.79C1089.25 302.701 1055.83 315.843 1021.55 327.854C1013.8 330.571 1006.2 333.17 998.977 335.576C955.418 350.061 916.262 360.758 879.273 368.279C834.983 377.285 793.819 381.818 753.429 382.133C732.878 382.293 712.56 381.313 693.051 379.217C672.599 377.02 652.917 373.584 634.551 369.003C594.464 359.004 560.766 343.711 534.399 323.548C533.161 322.596 531.916 321.617 530.702 320.639C510.3 304.229 494.758 286.089 479.726 268.546C475.474 263.583 471.074 258.449 466.653 253.458C445.723 229.768 424.223 209.792 400.926 192.385C397.905 190.13 394.785 187.867 391.651 185.66C334.488 145.436 258.319 112.456 171.384 90.2861C68.1783 64.0773 -38.7163 54.3808 -129.601 62.9822C-190.229 68.8198 -249.491 88.1311 -280.579 112.177C-302.891 129.438 -310.875 148.849 -303.672 168.317L-304.017 168.352C-307.773 158.204 -307.484 148.098 -303.155 138.314C-299.135 129.232 -291.64 120.402 -280.871 112.072C-264.945 99.7524 -241.842 88.5877 -214.057 79.784C-187.777 71.4574 -158.596 65.5845 -129.664 62.7985C-81.8533 58.275 -29.9693 58.7428 24.5454 64.1924C73.679 69.1038 123.133 77.8258 171.535 90.1172C258.523 112.298 334.734 145.298 391.929 185.547C395.066 187.754 398.189 190.019 401.211 192.276C424.522 209.692 446.029 229.677 466.969 253.376C471.394 258.367 475.79 263.501 480.046 268.467C495.071 286.002 510.606 304.134 530.994 320.533C532.208 321.51 533.453 322.488 534.687 323.438C584.953 361.875 662.635 382.657 753.422 381.944C827.087 381.368 905.053 366.582 998.787 335.414C1006.01 333.008 1013.6 330.412 1021.35 327.694C1055.63 315.685 1089.05 302.547 1124.42 288.635C1169.19 271.034 1215.48 252.832 1264.11 236.927C1313.86 220.732 1361.42 208.474 1409.53 199.448C1458.26 190.304 1506.19 184.73 1556.07 182.41C1599.28 180.326 1655.68 179.76 1708.6 193.987C1754.82 206.468 1793.9 226.982 1831.7 246.818C1841.78 252.11 1851.3 257.107 1860.96 261.957C1958.6 311.002 2056.61 363.982 2160.58 423.928L2160.32 424.06Z" fill="white" fill-opacity="0.35"/>
<path d="M2156.59 422.311C2053.59 361.717 1957.29 308.114 1862.18 258.44C1852.53 253.396 1842.99 248.157 1832.9 242.609C1796.19 222.427 1758.23 201.558 1712.52 189.374C1659.18 175.221 1602.94 177.551 1559.9 181.161C1467.99 188.725 1376.62 208.43 1272.34 243.173C1233.23 256.262 1195.01 270.621 1158.05 284.507C1113.15 301.372 1070.75 317.303 1026.85 331.178C1018.94 333.68 1011.11 336.082 1003.58 338.313C959.24 351.443 918.874 360.902 880.176 367.228C858.5 370.771 837.102 373.339 816.576 374.859C794.683 376.479 773.035 376.964 752.235 376.299C710.034 374.95 670.509 369.043 634.761 358.746C596.154 347.624 563.297 331.709 537.106 311.44C535.875 310.48 534.64 309.5 533.434 308.528C513.467 292.359 497.648 274.649 482.352 257.524C477.72 252.34 472.933 246.98 468.118 241.764C446.344 218.113 424.376 198.306 400.96 181.209C397.896 178.973 394.731 176.73 391.558 174.546C333.653 134.696 256.911 102.188 169.631 80.5357C65.7361 54.8634 -41.4504 45.8054 -132.184 55.0286C-229.336 65.0573 -324.006 108.389 -307.546 160.909L-307.894 160.938C-312.012 147.8 -309.6 134.858 -300.726 122.466C-292.623 111.149 -279.325 100.499 -261.201 90.8132C-244.351 81.8072 -224.135 74.0318 -201.119 67.7023C-179.229 61.6829 -155.414 57.2355 -132.254 54.8448C-84.4995 49.991 -32.5592 50.1302 22.1208 55.2606C71.374 59.8805 121.053 68.3279 169.778 80.3687C257.107 102.035 333.896 134.562 391.836 174.434C395.012 176.621 398.178 178.863 401.244 181.102C424.672 198.206 446.65 218.024 468.435 241.684C473.25 246.9 478.036 252.26 482.668 257.447C497.961 274.566 513.773 292.268 533.729 308.427C534.932 309.4 536.163 310.38 537.394 311.338C587.734 350.291 664.041 373.294 752.256 376.115C826.938 378.5 909.09 366.085 1003.41 338.153C1010.93 335.922 1018.76 333.522 1026.67 331.02C1070.56 317.149 1112.96 301.22 1157.84 284.357C1194.81 270.469 1233.03 256.108 1272.15 243.017C1376.47 208.259 1467.89 188.546 1559.85 180.977C1588.77 178.551 1612.71 177.775 1635.2 178.538C1663.95 179.513 1689.29 183.002 1712.68 189.207C1758.44 201.404 1796.42 222.286 1833.15 242.479C1843.24 248.025 1852.78 253.265 1862.43 258.306C1957.54 307.984 2053.85 361.589 2156.85 422.187L2156.59 422.311Z" fill="white" fill-opacity="0.35"/>
<path d="M2152.87 420.563C2050.84 359.308 1956.24 305.081 1863.65 254.779C1854.07 249.575 1844.6 244.123 1834.58 238.349C1798.86 217.781 1761.93 196.511 1716.59 184.589C1662.09 170.317 1603.24 174.974 1563.71 179.719C1456.42 192.437 1360.28 222.005 1280.38 249.255C1251.66 259.089 1223.02 269.506 1195.31 279.579C1139.74 299.787 1087.25 318.874 1032.15 334.503C1024.05 336.802 1015.99 339.006 1008.19 341.053C962.983 352.893 921.408 361.112 881.088 366.176C835.38 371.917 791.631 373.361 751.047 370.465C709.356 367.49 670.302 360.095 634.977 348.485C597.924 336.309 565.908 319.772 539.811 299.334C538.595 298.375 537.367 297.393 536.168 296.416C516.697 280.544 500.68 263.321 485.188 246.664C480.113 241.205 474.862 235.563 469.586 230.07C446.637 206.122 424.842 187.047 400.999 170.033C397.894 167.817 394.69 165.597 391.472 163.431C332.817 123.96 255.498 91.923 167.873 70.7834C63.2893 45.6494 -44.1927 37.228 -134.772 47.073C-232.272 57.8108 -325.007 100.554 -311.424 153.501L-311.772 153.525C-315.142 140.389 -312.226 127.459 -303.11 115.095C-294.753 103.767 -281.378 93.1054 -263.349 83.4089C-246.537 74.3658 -226.427 66.5328 -203.573 60.1236C-181.813 54.0206 -158.044 49.4452 -134.842 46.8893C-87.1398 41.7051 -35.1468 41.5157 19.6951 46.325C69.0678 50.6535 118.972 58.8261 168.021 70.6145C255.698 91.7653 333.06 123.821 391.742 163.316C394.96 165.484 398.168 167.706 401.277 169.922C425.134 186.943 446.936 206.03 469.895 229.987C475.171 235.479 480.422 241.124 485.497 246.583C500.986 263.234 517 280.452 536.456 296.316C537.655 297.292 538.879 298.272 540.096 299.232C590.827 338.961 665.758 364.193 751.09 370.282C827.621 375.742 911.665 366.126 1008.03 340.886C1015.83 338.84 1023.89 336.639 1031.98 334.339C1087.07 318.714 1139.55 299.631 1195.11 279.425C1222.82 269.352 1251.46 258.933 1280.18 249.098C1333.91 230.776 1378.61 217.239 1420.83 206.497C1470.54 193.853 1517.25 185.035 1563.63 179.537C1591.9 176.144 1616.54 174.607 1638.96 174.841C1667.83 175.141 1693.27 178.275 1716.75 184.422C1762.14 196.359 1799.1 217.642 1834.84 238.222C1844.86 243.995 1854.32 249.447 1863.9 254.648C1956.49 304.951 2051.1 359.182 2153.13 420.438L2152.87 420.563Z" fill="white" fill-opacity="0.35"/>
<path d="M2149.14 418.812C2048.1 356.895 1955.2 302.042 1865.12 251.117C1855.67 245.777 1846.32 240.136 1836.43 234.163C1801.65 213.181 1765.7 191.485 1720.67 179.804C1665.57 165.565 1606.87 172.112 1567.51 178.276C1470.31 193.369 1383.6 222.105 1288.42 255.336C1271.25 261.352 1253.89 267.56 1237.09 273.567C1172.51 296.665 1105.72 320.548 1037.45 337.825C1029.16 339.926 1020.86 341.932 1012.79 343.789C967.277 354.242 923.272 361.418 881.992 365.117C835.229 369.309 790.773 369.143 749.848 364.629C708.74 360.095 670.161 351.209 635.18 338.22C599.781 325.075 568.599 307.919 542.502 287.228C541.296 286.267 540.079 285.283 538.886 284.307C520.003 268.806 503.884 252.143 488.297 236.03C482.68 230.224 476.873 224.221 471.038 218.38C447.193 194.456 424.944 175.544 401.02 158.861C397.88 156.671 394.63 154.469 391.366 152.32C331.98 113.22 254.091 81.6547 166.115 61.0311C60.8448 36.4353 -46.9291 28.6525 -137.36 39.1174C-231.766 50.1615 -326.213 91.405 -315.307 146.091L-315.655 146.109C-318.275 132.973 -314.857 120.058 -305.498 107.722C-296.891 96.3813 -283.435 85.7103 -265.505 76.0027C-232.423 58.0946 -185.745 44.5838 -137.438 38.9337C-89.7917 33.4209 -37.7425 32.9012 17.2647 37.3894C66.757 41.4283 116.882 49.3244 166.255 60.8603C254.281 81.495 332.216 113.081 391.64 152.199C394.908 154.351 398.157 156.552 401.302 158.744C425.235 175.436 447.495 194.356 471.348 218.289C477.183 224.132 482.993 230.135 488.61 235.941C504.194 252.051 520.309 268.709 539.182 284.203C540.371 285.179 541.588 286.161 542.794 287.122C595.005 328.518 666.627 355.256 749.915 364.446C827.037 372.954 915.428 365.947 1012.64 343.618C1020.71 341.762 1029 339.757 1037.29 337.658C1105.54 320.386 1172.31 296.507 1236.89 273.413C1253.68 267.406 1271.04 261.198 1288.21 255.182C1329.88 240.635 1378.36 223.95 1426.48 210.02C1476.81 195.449 1522.91 185.008 1567.4 178.1C1595.41 173.714 1620.05 171.438 1642.71 171.145C1671.3 170.774 1697.57 173.632 1720.82 179.639C1740.99 184.871 1761.29 192.68 1782.88 203.512C1801.94 213.077 1819.6 223.735 1836.68 234.04C1846.58 240.012 1855.92 245.652 1865.37 250.991C1955.45 301.918 2048.36 356.772 2149.4 418.691L2149.14 418.812Z" fill="white" fill-opacity="0.35"/>
<path d="M2145.41 417.064C2045.36 354.478 1954.16 299 1866.58 247.458C1857.31 242.001 1848.12 236.19 1838.39 230.039C1804.53 208.62 1769.51 186.473 1724.74 175.022C1682.91 164.355 1632.72 164.949 1571.31 176.838C1485.45 193.367 1408.7 221.014 1327.44 250.287C1317.32 253.933 1306.86 257.701 1296.45 261.422C1292.38 262.883 1288.3 264.347 1284.22 265.81C1206.8 293.595 1126.74 322.326 1042.75 341.151C1034.26 343.055 1025.73 344.865 1017.39 346.528C970.882 355.796 925.635 361.695 882.909 364.06C835.066 366.706 789.896 364.936 748.662 358.796C708.195 352.769 670.091 342.393 635.409 327.956C601.792 313.962 571.447 296.188 545.213 275.122C544.017 274.159 542.811 273.173 541.626 272.195C523.46 257.181 507.394 241.19 491.852 225.727C485.56 219.464 479.05 212.988 472.512 206.685C447.744 182.777 425.045 164.028 401.066 147.683C397.879 145.512 394.591 143.332 391.285 141.203C331.146 102.482 252.68 71.3865 164.359 51.2789C58.407 27.2233 -49.6658 20.0771 -139.946 31.162C-232.617 42.6348 -326.931 84.2162 -319.183 138.683L-319.535 138.698C-321.402 125.56 -317.484 112.66 -307.883 100.355C-299.023 89.0013 -285.49 78.3173 -267.654 68.6023C-234.713 50.6571 -188.197 36.9457 -140.027 30.9819C-92.4335 25.1388 -40.3315 24.2887 14.8375 28.4576C64.4494 32.2033 114.803 39.8246 164.5 51.1081C252.87 71.2287 331.385 102.341 391.548 141.083C394.854 143.212 398.15 145.395 401.336 147.566C425.326 163.921 448.04 182.675 472.814 206.592C479.356 212.895 485.863 219.373 492.158 225.636C507.693 241.096 523.759 257.083 541.918 272.091C543.103 273.07 544.306 274.053 545.502 275.017C598.845 317.849 669.127 346.755 748.754 358.612C827.357 370.317 917.697 366.19 1017.27 346.35C1025.6 344.687 1034.13 342.879 1042.61 340.977C1126.57 322.159 1206.61 293.433 1284.02 265.652C1288.1 264.188 1292.18 262.725 1296.25 261.264C1306.66 257.543 1317.12 253.775 1327.24 250.131C1408.52 220.852 1485.29 193.198 1571.19 176.661C1598.93 171.29 1623.56 168.277 1646.48 167.447C1675.17 166.41 1701.55 168.903 1724.89 174.854C1744.95 179.982 1764.99 187.826 1786.18 198.835C1804.88 208.548 1822.05 219.412 1838.67 229.918C1848.39 236.067 1857.57 241.877 1866.84 247.332C1954.42 298.875 2045.63 354.356 2145.68 416.943L2145.41 417.064Z" fill="white" fill-opacity="0.35"/>
<path d="M2141.68 415.315C2050.37 356.995 1958.3 299.288 1868.05 243.798C1858.86 238.182 1849.75 232.147 1840.11 225.76C1808.76 204.983 1773.22 181.434 1728.82 170.239C1686.49 159.591 1636.22 161.278 1575.11 175.396C1502.45 192.127 1438.16 216.728 1370.08 242.774C1348.77 250.93 1326.72 259.366 1304.49 267.503C1265.68 281.738 1223.69 296.801 1179.68 310.519C1132.55 325.213 1089.49 336.318 1048.04 344.474C1039.34 346.187 1030.57 347.8 1021.99 349.265C974.491 357.363 928.012 361.972 883.841 362.963C834.943 364.058 789.06 360.695 747.46 352.958C670.639 338.495 603.498 308.234 547.904 263.015C546.719 262.05 545.523 261.062 544.345 260.084C527.1 245.732 511.316 230.592 496.052 215.949C488.866 209.057 481.438 201.929 473.964 194.993C448.255 171.091 425.098 152.508 401.091 136.51C397.858 134.356 394.528 132.198 391.183 130.091C330.313 91.743 251.27 61.1203 162.604 41.5269C55.9664 18.0095 -52.3983 11.5037 -142.531 23.2067C-235.765 35.3812 -327.715 76.4113 -323.062 131.275L-323.414 131.283C-324.529 118.141 -320.104 105.256 -310.267 92.9829C-301.151 81.614 -287.54 70.9189 -269.807 61.1965C-253.101 52.0364 -233.299 44.0271 -210.955 37.3895C-189.262 30.9469 -166.271 26.1135 -142.618 23.0248C-95.0781 16.8532 -42.9198 15.6726 12.4109 19.5204C62.1424 22.9784 112.718 30.3232 162.738 41.3543C251.456 60.9589 330.545 91.6001 391.45 129.967C394.795 132.075 398.133 134.236 401.365 136.389C425.383 152.396 448.55 170.987 474.27 194.896C481.744 201.835 489.172 208.962 496.358 215.856C511.622 230.497 527.403 245.636 544.64 259.982C545.815 260.962 547.014 261.948 548.196 262.913C603.748 308.097 670.829 338.334 747.576 352.782C826.629 367.483 921.481 366.206 1021.88 349.086C1030.45 347.622 1039.22 346.011 1047.92 344.299C1140.59 326.066 1225.38 296.288 1304.28 267.349C1326.52 259.212 1348.56 250.777 1369.88 242.622C1437.96 216.571 1502.27 191.964 1574.97 175.225C1636.17 161.085 1686.54 159.398 1728.96 170.07C1748.85 175.084 1768.59 182.943 1789.33 194.093C1807.61 203.925 1824.27 214.967 1840.39 225.643C1850.03 232.03 1859.13 238.063 1868.31 243.676C1958.57 299.167 2050.64 356.875 2141.95 415.197L2141.68 415.315Z" fill="white" fill-opacity="0.35"/>
<path d="M2137.95 413.567C2048.03 354.924 1957.72 296.574 1869.51 240.138C1860.61 234.46 1851.78 228.32 1842.43 221.82C1811.84 200.558 1777.18 176.457 1732.89 165.452C1690.06 154.822 1639.69 157.603 1578.91 173.95C1515.22 191.052 1456.71 215.201 1400.13 238.557C1371.76 250.267 1342.42 262.377 1312.52 273.582C1265.34 291.286 1225.64 304.791 1187.58 316.086C1140.65 330.013 1096.74 340.385 1053.34 347.794C1044.43 349.316 1035.43 350.731 1026.59 351.999C980.497 358.601 935.239 361.942 891.944 361.944C889.539 361.944 887.147 361.933 884.755 361.912C834.7 361.482 788.106 356.503 746.267 347.119C726.072 342.564 706.295 336.782 687.489 329.933C669.812 323.496 652.442 315.913 635.859 307.397C606.023 292.077 578.133 273.597 550.601 250.906C549.419 249.929 548.241 248.951 547.07 247.969C531.095 234.581 515.982 220.585 501.369 207.05C492.932 199.238 484.209 191.158 475.423 183.294C448.374 159.064 425.46 141.185 401.118 125.328C397.844 123.195 394.471 121.057 391.084 118.971C329.475 81.0035 249.859 50.8523 160.849 31.773C53.5287 8.79582 -55.1315 2.92855 -145.116 15.2496C-236.602 27.812 -328.433 69.1539 -326.938 123.864L-327.29 123.866C-327.987 98.3826 -308.85 74.1506 -271.952 53.7906C-255.274 44.5878 -235.579 36.521 -213.407 29.8092C-191.833 23.2793 -168.888 18.3197 -145.204 15.0677C-97.7198 8.56566 -45.5052 7.05661 9.98721 10.5833C59.8383 13.7517 110.639 20.8218 160.979 31.5985C250.046 50.6908 329.707 80.8606 391.355 118.85C394.742 120.938 398.122 123.079 401.396 125.211C425.748 141.078 448.673 158.961 475.729 183.201C484.515 191.067 493.241 199.147 501.675 206.96C516.289 220.493 531.398 234.486 547.369 247.871C548.54 248.853 549.715 249.831 550.897 250.805C609.4 299.024 673.351 330.473 746.404 346.948C847.587 369.645 954.566 362.126 1026.49 351.82C1035.33 350.553 1044.33 349.14 1053.23 347.618C1153.05 330.575 1244.12 299.019 1312.32 273.432C1342.21 262.23 1371.55 250.12 1399.92 238.412C1456.51 215.052 1515.03 190.896 1578.75 173.786C1605.95 166.471 1630.56 161.98 1654 160.057C1682.9 157.684 1709.5 159.444 1733.04 165.287C1752.87 170.215 1772.42 178.137 1792.82 189.504C1810.79 199.52 1827.02 210.8 1842.71 221.71C1852.06 228.209 1860.89 234.347 1869.78 240.021C1957.99 296.457 2048.3 354.807 2138.23 413.45L2137.95 413.567Z" fill="white" fill-opacity="0.35"/>
<path d="M2134.22 411.818L1870.98 236.48C1862.38 230.753 1853.84 224.522 1844.81 217.927C1814.98 196.162 1781.17 171.494 1736.96 160.671C1694.22 150.206 1642.32 154.189 1582.71 172.511C1525.4 190.124 1473.13 213.547 1422.59 236.199C1389.64 250.965 1355.57 266.232 1320.56 279.668C1215.35 320.054 1123.4 343.908 1031.19 354.738C992.941 359.23 955.206 361.491 918.611 361.491C907.518 361.491 896.538 361.283 885.673 360.867C834.436 358.907 787.132 352.318 745.078 341.285C706.102 331.058 670.446 316.62 636.084 297.146C608.643 281.595 582.339 263.056 553.306 238.802C537.982 226.002 523.143 212.702 508.794 199.841C476.317 170.737 442.736 140.641 401.16 114.154C337.389 73.5287 253.682 41.6698 159.09 22.0207C51.0912 -0.414545 -57.8644 -5.64516 -147.701 7.29402C-234.679 19.8211 -329.081 59.3236 -330.818 116.456L-331.17 116.452C-330.392 90.9152 -310.658 66.6869 -274.102 46.3863C-241.048 28.0309 -196.191 14.0838 -147.793 7.11398C-100.361 0.283367 -48.0905 -1.55607 7.5603 1.64949C57.531 4.52651 108.557 11.3237 159.22 21.8481C206.026 31.5705 250.478 44.3687 291.346 59.8879C332.556 75.537 369.594 93.7532 401.428 114.032C443.021 140.528 476.612 170.631 509.096 199.743C523.446 212.602 538.284 225.9 553.605 238.698C595.964 274.087 656.029 317.708 745.236 341.114C847.541 367.956 957.165 363.238 1031.11 354.553C1123.28 343.73 1215.18 319.885 1320.36 279.514C1355.35 266.083 1389.41 250.816 1422.36 236.055C1472.92 213.398 1525.2 189.97 1582.53 172.348C1642.25 153.994 1694.26 150.007 1737.11 160.5C1756.9 165.347 1776.28 173.337 1796.35 184.933C1814.01 195.14 1829.81 206.668 1845.09 217.816C1854.13 224.411 1862.67 230.638 1871.26 236.363L2134.5 411.701L2134.22 411.818Z" fill="white" fill-opacity="0.35"/>
<path d="M2132.1 398.339C2065.07 349.519 2007.56 309.903 1951.11 273.669C1923.7 256.067 1895.72 238.742 1867.93 222.174C1859.52 217.163 1851.19 211.832 1842.38 206.187C1820.22 192.001 1797.3 177.332 1770.94 166.445C1756.78 160.589 1743.15 156.396 1729.27 153.627C1686.67 145.042 1636.69 150.718 1580.71 170.499C1551.74 180.721 1525.36 192.353 1503.38 202.384C1480.11 213.003 1457.15 224.713 1434.95 236.038C1403.04 252.316 1370.04 269.148 1334.57 283.603C1312.98 292.425 1291.1 300.309 1269.53 307.035C1226.38 320.492 1180.06 331.581 1131.86 339.993C1102.08 345.133 1072.16 349.017 1042.93 351.538C1017.74 353.702 992.498 354.952 967.91 355.25C931.111 355.7 895.257 353.986 861.346 350.153C825.289 346.077 791.166 339.572 759.927 330.814C732.072 323.005 705.761 313.173 679.492 300.754C630.541 277.63 591.498 250.892 562.953 230.182C548.931 219.96 535.239 209.536 521.997 199.455C483.868 170.423 447.853 143.002 402.785 118.577C366.028 98.787 324.091 81.7086 278.126 67.8135C242.804 57.1351 204.387 48.402 163.944 41.8554C154.311 40.298 144.495 38.8465 134.777 37.5454C92.9377 31.9528 45.8369 28.3111 -5.21353 26.7204C-56.6825 25.0795 -101.212 26.4995 -141.339 31.0656C-164.024 33.6271 -186.002 37.6456 -206.672 43.008C-279.644 61.9407 -326.502 93.7234 -332.017 128.029L-332.457 128.008C-330.987 118.863 -326.671 109.855 -319.633 101.232C-312.947 93.0404 -303.764 85.1406 -292.341 77.7513C-270.757 63.7931 -241.199 51.7059 -206.865 42.7983C-186.164 37.4266 -164.15 33.4025 -141.43 30.8373C-101.261 26.2675 -56.6966 24.8457 -5.18539 26.4883C45.8932 28.0791 93.0185 31.7245 134.886 37.3208C144.614 38.6238 154.434 40.0753 164.074 41.6345C204.549 48.1848 242.997 56.9254 278.348 67.6131C324.344 81.5174 366.317 98.6107 403.091 118.414C448.187 142.854 484.209 170.282 522.352 199.321C535.59 209.402 549.282 219.824 563.301 230.044C591.832 250.746 630.857 277.471 679.78 300.58C706.021 312.986 732.304 322.809 760.128 330.608C821.265 347.746 891.167 355.959 967.896 355.018C992.462 354.72 1017.68 353.47 1042.86 351.308C1072.06 348.787 1101.97 344.906 1131.72 339.77C1179.89 331.364 1226.18 320.283 1269.31 306.833C1290.87 300.112 1312.73 292.232 1334.3 283.418C1369.75 268.969 1402.74 252.142 1434.64 235.869C1456.85 224.543 1479.81 212.828 1503.09 202.206C1525.08 192.17 1551.47 180.533 1580.47 170.304C1605.39 161.497 1629.52 155.412 1652.19 152.218C1680.04 148.294 1706.03 148.695 1729.43 153.41C1743.35 156.188 1757.02 160.392 1771.21 166.262C1797.61 177.165 1820.54 191.843 1842.72 206.039C1851.53 211.681 1859.86 217.012 1868.26 222.02C1896.06 238.59 1924.05 255.917 1951.45 273.523C2007.9 309.76 2065.42 349.379 2132.46 398.203L2132.1 398.339Z" fill="white" fill-opacity="0.35"/>
<path d="M2129.98 384.856C2067.83 335.21 2009.5 293.665 1951.66 257.851C1923.44 240.357 1894.25 223.54 1864.88 207.869C1857.08 203.711 1849.39 199.39 1841.25 194.817C1816.85 181.12 1791.63 166.958 1763.38 157.159C1749.11 152.19 1735.44 148.73 1721.58 146.581C1668.51 138.347 1614.6 153.946 1578.71 168.482C1553.29 178.75 1530.07 190.36 1506.55 202.345C1485.97 212.836 1466.6 224.121 1446.09 236.067C1415.66 253.801 1384.19 272.138 1348.57 287.535C1327.44 296.721 1305.38 304.663 1283.02 311.141C1241.36 323.21 1195.74 332.581 1143.55 339.794C1114.35 343.83 1084.44 346.705 1054.66 348.336C1029.53 349.697 1004.44 350.183 980.097 349.777C943.878 349.179 908.475 346.491 874.866 341.79C839.568 336.851 805.889 329.634 774.766 320.34C747.498 312.199 721.169 302.098 694.274 289.461C645.429 266.544 603.586 241.137 572.594 221.562C561.121 214.315 549.831 207.024 538.911 199.971C495.422 171.884 454.346 145.352 404.411 123C367.091 106.295 325.192 92.1699 279.885 81.0182C245.604 72.5801 209.269 66.2581 168.808 61.6901C159.47 60.6377 149.971 59.6892 140.577 58.8706C99.3144 55.2939 55.277 53.9407 1.99673 52.5412C-36.4098 51.4813 -86.6865 50.7834 -134.987 54.8335C-157.862 56.7157 -179.974 59.9843 -200.714 64.5449C-273.735 80.6061 -323.27 108.664 -333.223 139.602L-333.744 139.555C-331.106 131.351 -325.76 123.305 -317.864 115.637C-310.338 108.331 -300.448 101.326 -288.472 94.8112C-265.713 82.4344 -235.438 71.8785 -200.918 64.2869C-180.139 59.717 -157.985 56.4428 -135.071 54.557C-86.7252 50.5013 -36.4098 51.2011 2.02133 52.2609C55.3192 53.6605 99.3706 55.0136 140.661 58.5922C150.062 59.4126 159.569 60.3611 168.917 61.4136C209.417 65.9871 245.787 72.3147 280.106 80.762C325.459 91.9249 367.393 106.061 404.752 122.783C454.722 145.152 495.816 171.691 539.319 199.789C550.236 206.841 561.526 214.132 572.998 221.376C603.984 240.944 645.809 266.341 694.626 289.248C721.489 301.872 747.79 311.961 775.026 320.093C836.224 338.367 905.229 348.258 980.114 349.495C1004.44 349.899 1029.5 349.415 1054.6 348.054C1084.36 346.425 1114.24 343.553 1143.42 339.52C1195.56 332.314 1241.15 322.95 1282.77 310.892C1305.11 304.422 1327.13 296.491 1348.24 287.314C1383.83 271.93 1415.28 253.601 1445.71 235.876C1466.22 223.925 1485.59 212.637 1506.19 202.141C1529.72 190.148 1552.95 178.534 1578.4 168.255C1601.66 158.831 1624.61 152.053 1646.6 148.103C1673.26 143.314 1698.55 142.711 1721.74 146.308C1735.65 148.467 1749.36 151.938 1763.67 156.921C1791.97 166.739 1817.22 180.914 1841.63 194.622C1849.78 199.193 1857.47 203.513 1865.26 207.668C1894.64 223.345 1923.84 240.168 1952.06 257.667C2009.92 293.491 2068.26 335.043 2130.42 384.7L2129.98 384.856Z" fill="white" fill-opacity="0.35"/>
<path d="M2127.86 371.373C2069.69 320.227 2012.24 277.92 1952.2 242.035C1923.18 224.649 1892.77 208.343 1861.83 193.566C1855.22 190.407 1848.41 187.055 1841.82 183.814C1814.63 170.424 1786.52 156.579 1755.82 147.875C1741.41 143.762 1727.7 141.033 1713.9 139.535C1660.94 133.783 1610.07 151.005 1576.72 166.463C1554.12 176.898 1533.45 188.725 1513.47 200.164L1509.73 202.306C1491.58 212.684 1474.56 224.066 1456.54 236.118C1427.85 255.309 1398.18 275.151 1362.58 291.466C1341.87 301.029 1319.64 309.031 1296.5 315.249C1256.16 326.091 1211.27 333.827 1155.23 339.596C1126.26 342.579 1096.36 344.443 1066.37 345.133C1041.31 345.688 1016.38 345.41 992.273 344.302C919.294 340.962 851.104 329.376 789.598 309.866C763.009 301.432 736.662 291.065 709.057 278.169C662.339 256.391 620.788 234.006 582.238 212.944C577.068 210.121 571.954 207.316 566.879 204.534C514.224 175.673 464.493 148.411 406.046 127.43C367.889 113.731 326.032 102.561 281.643 94.2269C249.054 88.1091 213.736 83.955 173.676 81.5272C164.648 80.9833 155.465 80.536 146.38 80.1982C123.526 79.3629 99.2863 79.2274 73.6222 79.0845C53.0086 78.9694 31.6951 78.8506 9.20337 78.3662C-34.2361 77.3509 -83.4682 76.2019 -128.642 78.6075C-151.949 79.8492 -174.195 82.3662 -194.763 86.0896C-267.756 99.3053 -319.971 123.641 -334.436 151.188L-335.031 151.101C-331.218 143.838 -324.845 136.753 -316.091 130.043C-307.721 123.626 -297.127 117.512 -284.606 111.871C-260.659 101.084 -229.659 92.0627 -194.967 85.7815C-174.353 82.0488 -152.062 79.5263 -128.708 78.2827C-83.4893 75.8752 -34.2326 77.0261 9.22449 78.0414C31.7021 78.524 53.0157 78.6446 73.6222 78.7597C99.2969 78.9026 123.544 79.0381 146.419 79.8752C155.51 80.2149 164.704 80.6622 173.739 81.2061C213.848 83.6358 249.209 87.7954 281.844 93.9225C326.286 102.266 368.188 113.449 406.387 127.162C464.887 148.163 514.643 175.437 567.318 204.311C572.393 207.093 577.511 209.896 582.677 212.721C621.221 233.779 662.758 256.159 709.461 277.93C737.039 290.811 763.357 301.168 789.914 309.592C851.34 329.077 919.441 340.647 992.326 343.982C1016.4 345.089 1041.31 345.367 1066.35 344.812C1096.3 344.121 1126.17 342.26 1155.11 339.281C1211.1 333.517 1255.93 325.79 1296.22 314.963C1319.31 308.758 1341.49 300.771 1362.17 291.225C1397.72 274.93 1427.37 255.099 1456.05 235.919C1474.08 223.862 1491.11 212.474 1509.27 202.089L1513.01 199.947C1533.01 188.502 1553.68 176.668 1576.31 166.221C1609.76 150.713 1660.81 133.442 1714.02 139.22C1727.88 140.725 1741.65 143.463 1756.11 147.593C1786.87 156.315 1815.02 170.175 1842.24 183.58C1848.82 186.821 1855.63 190.173 1862.24 193.33C1893.19 208.114 1923.62 224.43 1952.66 241.826C2012.72 277.725 2070.19 320.047 2128.37 371.21L2127.86 371.373Z" fill="white" fill-opacity="0.35"/>
<path d="M2125.73 357.888C2072.33 305.97 2014.13 261.669 1952.76 226.221C1922.92 208.944 1891.3 193.146 1858.79 179.266C1854.09 177.261 1849.29 175.181 1844.63 173.168C1813.91 159.877 1782.13 146.13 1748.28 138.594C1733.75 135.325 1720 133.33 1706.23 132.491C1653.42 129.276 1605.57 148.092 1574.73 164.443C1555.58 174.544 1538.3 185.777 1521.58 196.641C1518.69 198.522 1515.8 200.398 1512.9 202.267C1497 212.535 1482.14 224.006 1466.4 236.149C1439.64 256.793 1411.97 278.139 1376.59 295.401C1355.81 305.537 1334.02 313.374 1309.98 319.362C1259.69 331.885 1209.44 336.52 1166.91 339.405C1138.15 341.354 1108.27 342.207 1078.09 341.936C1053.1 341.686 1028.33 340.641 1004.45 338.833C933.664 333.485 866.369 320.218 804.436 299.397C778.667 290.737 752.306 280.101 723.842 266.883C695.09 253.564 668.297 240.747 642.383 228.352C624.773 219.927 608.138 211.969 591.892 204.335C530.484 175.476 474.235 150.102 407.696 131.864C368.719 121.182 326.905 112.963 283.413 107.437C252.241 103.476 218.92 101.547 178.554 101.364C169.846 101.33 160.976 101.384 152.194 101.525C138.853 101.753 125.052 102.23 110.446 102.737C82.4149 103.708 50.6381 104.809 16.4099 104.192C3.37558 103.957 -9.92252 103.624 -22.7845 103.301C-55.8661 102.472 -90.0733 101.614 -122.3 102.381C-145.967 102.945 -168.349 104.712 -188.819 107.634C-261.689 118.037 -316.58 138.654 -335.657 162.782L-336.308 162.639C-331.313 156.32 -323.913 150.199 -314.315 144.443C-305.097 138.915 -293.8 133.694 -280.745 128.925C-255.587 119.738 -223.867 112.252 -189.009 107.275C-168.49 104.346 -146.058 102.574 -122.339 102.01C-90.0768 101.241 -55.8556 102.1 -22.7563 102.93C-9.89789 103.253 3.40018 103.585 16.431 103.821C50.6275 104.437 82.3797 103.339 110.397 102.368C125.01 101.861 138.815 101.384 152.169 101.156C160.962 101.015 169.839 100.961 178.558 100.994C218.98 101.176 252.35 103.11 283.574 107.077C327.119 112.61 368.99 120.838 408.016 131.535C438.073 139.773 468.531 150.21 501.13 163.44C530.315 175.284 558.705 188.244 592.356 204.058C608.602 211.695 625.238 219.652 642.851 228.077C668.761 240.47 695.555 253.287 724.3 266.605C752.735 279.809 779.068 290.434 804.806 299.085C866.654 319.878 933.854 333.127 1004.54 338.467C1028.39 340.273 1053.14 341.316 1078.1 341.567C1108.24 341.838 1138.09 340.986 1166.82 339.037C1209.29 336.158 1259.48 331.529 1309.68 319.028C1333.65 313.057 1355.38 305.24 1376.1 295.13C1411.42 277.898 1439.07 256.569 1465.81 235.941C1481.56 223.791 1496.43 212.315 1512.35 202.035C1515.25 200.166 1518.13 198.29 1521.02 196.411C1537.75 185.54 1555.05 174.299 1574.22 164.185C1594.29 153.547 1614.87 145.363 1635.41 139.862C1659.73 133.345 1683.58 130.743 1706.3 132.127C1720.14 132.97 1733.95 134.975 1748.54 138.256C1782.48 145.813 1814.3 159.576 1845.06 172.884C1849.72 174.897 1854.52 176.977 1859.22 178.98C1891.75 192.871 1923.39 208.684 1953.26 225.974C1985.84 244.797 2017.76 266.243 2048.11 289.716C2074.94 310.462 2101.26 333.341 2126.33 357.714L2125.73 357.888Z" fill="white" fill-opacity="0.35"/>
<path d="M2123.61 344.399C2074.18 290.992 2016.89 245.91 1953.31 210.404C1922.65 193.237 1889.83 177.949 1855.75 164.964C1854.13 164.346 1852.51 163.728 1850.89 163.108C1815.45 149.588 1778.81 135.607 1740.76 129.313C1726.01 126.874 1712.22 125.61 1698.58 125.447C1645.98 124.819 1601.12 145.207 1572.76 162.419C1556.06 172.489 1541.25 183.525 1526.92 194.198C1523.38 196.838 1519.71 199.566 1516.1 202.224C1502.32 212.348 1489.51 223.857 1475.96 236.045C1451.3 258.213 1425.81 281.134 1390.61 299.332C1370.24 309.86 1348.28 317.756 1323.47 323.473C1274.59 334.734 1224.95 337.691 1178.59 339.209C1150.01 340.145 1120.14 339.985 1089.81 338.736C1064.9 337.678 1040.28 335.868 1016.63 333.359C948.253 326.12 881.851 311.17 819.278 288.925C794.219 280.017 768.594 269.426 738.639 255.594C681.708 229.378 639.433 210.913 601.568 195.724C526.256 165.515 468.777 147.743 409.377 136.298C369.609 128.635 327.837 123.37 285.213 120.645C255.642 118.755 224.259 118.924 183.461 121.198C175.1 121.669 166.547 122.224 158.036 122.85C149.996 123.449 141.829 124.136 133.18 124.862C101.249 127.544 65.0546 130.584 23.6304 130.016C1.79636 129.718 -20.5055 128.899 -42.0722 128.108C-66.5827 127.21 -91.9268 126.28 -115.955 126.154C-140.047 126.028 -162.567 127.045 -182.871 129.179C-255.499 136.81 -313.074 153.71 -336.881 174.386L-337.556 174.169C-331.373 168.797 -322.946 163.639 -312.511 158.837C-302.438 154.2 -290.445 149.873 -276.862 145.974C-250.477 138.397 -218.028 132.446 -183.026 128.769C-162.666 126.631 -140.097 125.61 -115.948 125.736C-91.8987 125.862 -66.5405 126.792 -42.0194 127.693C-20.4597 128.483 1.83151 129.302 23.6479 129.601C64.9983 130.167 101.154 127.13 133.05 124.452C141.702 123.724 149.876 123.039 157.92 122.438C166.441 121.812 175.002 121.257 183.369 120.784C224.231 118.508 255.666 118.338 285.301 120.233C327.984 122.961 369.817 128.235 409.64 135.908C469.121 147.368 526.661 165.159 602.039 195.394C639.918 210.588 682.207 229.058 739.152 255.282C769.086 269.103 794.683 279.683 819.715 288.581C882.202 310.796 948.506 325.725 1016.78 332.952C1040.4 335.458 1065 337.264 1089.87 338.322C1120.16 339.569 1149.99 339.729 1178.54 338.795C1224.83 337.279 1274.38 334.33 1323.15 323.094C1347.87 317.4 1369.75 309.53 1390.05 299.039C1425.17 280.88 1450.64 257.983 1475.27 235.839C1488.84 223.644 1501.65 212.125 1515.45 201.987C1519.06 199.33 1522.73 196.602 1526.27 193.962C1540.61 183.28 1555.44 172.236 1572.16 162.15C1590.67 150.917 1610.07 142.031 1629.84 135.739C1652.98 128.368 1676.12 124.769 1698.59 125.035C1712.31 125.198 1726.18 126.469 1740.99 128.919C1779.17 135.236 1815.86 149.235 1851.35 162.775C1852.97 163.395 1854.6 164.015 1856.22 164.632C1890.33 177.632 1923.19 192.938 1953.88 210.124C2017.51 245.662 2074.85 290.779 2124.32 344.223L2123.61 344.399Z" fill="white" fill-opacity="0.35"/>
<path d="M1196.09 339.017C1194.12 339.017 1192.18 339.015 1190.26 339.01C1161.83 338.946 1131.97 337.777 1101.52 335.531C1076.7 333.666 1052.24 331.091 1028.8 327.882C995.322 323.305 961.72 316.727 928.923 308.331C897.252 300.224 865.355 290.171 834.117 278.449C803.508 266.965 774.917 254.169 753.428 244.304C703.148 221.284 655.308 202.043 611.239 187.114C539.864 162.936 476.257 148.196 411.061 140.729C371.73 136.224 329.532 133.848 288.903 133.848C288.273 133.848 287.647 133.848 287.017 133.85C252.114 133.913 218.976 137.336 188.37 141.026C180.404 141.993 172.164 143.049 163.877 144.168C159.337 144.788 154.789 145.427 149.978 146.102C116.042 150.874 77.5753 156.281 30.8438 155.838C2.38364 155.567 -26.6851 154.011 -54.7971 152.506C-72.9487 151.533 -91.7159 150.529 -109.618 149.922C-134.227 149.089 -156.873 149.356 -176.935 150.72C-249.176 155.628 -309.434 168.814 -338.13 185.995L-338.791 185.688C-324.072 176.877 -301.932 169.248 -272.986 163.012C-245.342 157.057 -212.165 152.647 -177.047 150.262C-156.933 148.896 -134.227 148.625 -109.562 149.462C-91.642 150.069 -72.8643 151.075 -54.7056 152.048C-26.6112 153.553 2.43988 155.108 30.8614 155.377C77.4733 155.821 115.873 150.422 149.753 145.659C154.568 144.981 159.115 144.343 163.659 143.723C171.953 142.604 180.2 141.546 188.173 140.578C218.832 136.883 252.026 133.455 287.014 133.39C328.29 133.314 371.244 135.697 411.248 140.28C444.896 144.135 477.517 149.809 510.967 157.627C543.184 165.158 576.139 174.676 611.711 186.728C655.815 201.668 703.689 220.924 754.001 243.958C775.473 253.818 804.042 266.605 834.62 278.076C898.008 301.861 963.415 318.468 1029.02 327.438C1052.43 330.644 1076.86 333.215 1101.64 335.078C1132.05 337.32 1161.87 338.49 1190.26 338.551C1234.7 338.648 1286.29 337.857 1336.62 327.156C1362.09 321.74 1384.12 313.82 1403.98 302.945C1438.86 283.845 1461.98 259.331 1484.35 235.622C1495.85 223.427 1506.72 211.908 1518.53 201.937C1522.31 198.743 1526.13 195.452 1529.83 192.268C1542.31 181.514 1555.21 170.396 1570.07 160.118C1587.06 148.294 1605.29 138.704 1624.25 131.613C1646.23 123.392 1668.64 118.793 1690.86 117.943C1704.57 117.417 1718.49 117.954 1733.41 119.584C1773.3 123.938 1812.83 136.59 1853.19 150.282C1888.39 162.221 1923.41 177.432 1954.49 194.273C1989 212.925 2021.43 234.807 2050.87 259.31C2077.1 281.141 2101.13 305.17 2122.28 330.733L2121.48 330.919C2076.05 276.021 2019.65 230.156 1953.86 194.598C1922.83 177.781 1887.86 162.592 1852.72 150.674C1812.43 137.005 1772.97 124.378 1733.23 120.038C1718.39 118.418 1704.55 117.885 1690.92 118.407C1650.1 119.972 1607.43 134.884 1570.77 160.4C1555.93 170.659 1543.04 181.768 1530.58 192.512C1526.88 195.697 1523.06 198.989 1519.28 202.184C1507.48 212.137 1496.63 223.646 1485.14 235.83C1474.16 247.463 1462.82 259.492 1449.8 271.056C1435.03 284.166 1420.26 294.702 1404.62 303.268C1384.67 314.191 1362.54 322.147 1336.95 327.589C1314.38 332.389 1290.12 335.561 1262.79 337.291C1239.64 338.748 1216.4 339.017 1196.09 339.017Z" fill="white" fill-opacity="0.35"/>
<path d="M1252.49 339.947C1234.56 339.947 1217.33 339.382 1201.92 338.811C1173.59 337.76 1143.74 335.579 1113.22 332.327C1088.51 329.656 1064.2 326.319 1040.96 322.404C977.343 311.707 914.532 293.901 848.941 267.973C820.337 256.667 793.372 244.502 768.21 233.012C718.535 210.395 668.98 192.057 620.912 178.503C550.218 158.57 484.076 147.973 412.757 145.156C372.12 143.55 329.268 144.205 288.829 147.049C254.98 149.428 223.07 155.171 193.28 160.847C185.828 162.275 177.9 163.834 169.723 165.48C167.68 165.894 165.619 166.316 163.529 166.741C129.22 173.742 90.3987 181.664 40.5758 181.664C39.7352 181.664 38.8981 181.662 38.0505 181.657C4.34283 181.477 -30.0718 178.937 -63.3575 176.48C-76.5535 175.505 -90.1998 174.499 -103.294 173.684C-128.87 172.096 -151.021 171.626 -171.015 172.253C-243.738 174.536 -305.122 183.773 -339.42 197.599L-340.007 197.193C-323.052 190.358 -298.534 184.424 -269.114 180.032C-240.175 175.713 -206.274 172.847 -171.075 171.743C-151.024 171.114 -128.817 171.583 -103.185 173.176C-90.0767 173.991 -76.4269 174.999 -63.2273 175.971C-29.9733 178.425 4.40967 180.962 38.054 181.142C88.9146 181.417 128.369 173.363 163.174 166.26C165.26 165.835 167.324 165.413 169.368 164.998C177.552 163.349 185.483 161.79 192.943 160.363C222.782 154.676 254.752 148.925 288.692 146.538C329.194 143.691 372.117 143.034 412.82 144.641C448.163 146.037 481.86 149.334 515.835 154.717C550.827 160.261 585.343 167.891 621.358 178.048C669.486 191.62 719.105 209.981 768.833 232.621C793.984 244.107 820.931 256.264 849.511 267.559C915.013 293.452 977.73 311.232 1041.25 321.912C1064.45 325.82 1088.73 329.153 1113.4 331.82C1143.88 335.069 1173.68 337.248 1201.98 338.295C1249.59 340.058 1300.25 340.964 1350.08 331.206C1376.3 326.07 1398.49 318.1 1417.91 306.839C1452.51 286.779 1474.04 259.418 1493.05 235.277C1502.61 223.13 1511.64 211.657 1521.6 201.877C1525.2 198.349 1528.81 194.702 1532.31 191.175C1543.26 180.14 1554.58 168.73 1567.97 158.074C1583.47 145.66 1600.52 135.364 1618.65 127.472C1639.47 118.409 1661.16 112.81 1683.11 110.837C1696.83 109.603 1710.8 109.406 1725.81 110.23C1767.75 112.538 1810.36 123.938 1850.16 135.916C1886.91 146.975 1923.19 161.668 1955.08 178.406C1990.56 196.972 2023.25 219.073 2052.24 244.092C2078.16 266.466 2101.04 291.071 2120.25 317.227L2119.35 317.411C2078.52 261.812 2021.48 213.87 1954.41 178.767C1922.58 162.059 1886.36 147.394 1849.69 136.357C1809.98 124.408 1767.48 113.035 1725.72 110.737C1710.8 109.917 1696.91 110.113 1683.28 111.338C1642.75 114.982 1602.09 131.678 1568.79 158.353C1555.41 168.987 1544.11 180.385 1533.18 191.409C1529.68 194.937 1526.06 198.585 1522.46 202.117C1512.52 211.875 1503.49 223.336 1493.94 235.47C1474.91 259.648 1453.34 287.054 1418.62 307.18C1399.09 318.503 1376.78 326.517 1350.41 331.683C1327.53 336.164 1302.85 338.759 1274.95 339.611C1267.4 339.852 1259.89 339.947 1252.49 339.947Z" fill="white" fill-opacity="0.35"/>
<path d="M1360.08 334.736C1359.83 334.736 1359.57 334.736 1359.32 334.736C1333.97 334.703 1309.09 333.066 1285.77 331.391C1257.48 329.361 1227.65 326.166 1197.11 321.901C1172.51 318.428 1148.36 314.324 1125.32 309.706C1064.24 297.48 1004.07 278.597 935.966 250.278C911.438 240.082 887.3 229.103 863.954 218.488C861.034 217.159 858.112 215.831 855.189 214.504C805.257 191.893 753.982 174.454 702.79 162.675C632.691 146.547 561.995 139.902 486.659 142.362C445.351 143.711 402.537 147.399 362.847 153.027C331.531 157.469 303.626 164.594 270.397 173.448C263.662 175.251 256.469 177.196 247.768 179.572L247.283 179.705C230.496 184.32 211.468 189.548 190.127 193.524C165.616 198.09 141.837 200.288 117.453 200.262C79.4301 200.212 40.6262 196.477 3.10242 192.864C-6.09122 191.978 -15.6014 191.063 -24.781 190.235C-51.1063 187.865 -73.3905 186.668 -92.9068 186.577C-164.768 186.243 -228.786 191.863 -268.543 201.994L-269 201.493C-249.526 196.529 -223.257 192.502 -193.035 189.844C-162.756 187.18 -128.127 185.858 -92.8963 186.022C-73.3237 186.113 -50.9832 187.312 -24.6016 189.688C-15.415 190.516 -5.90482 191.431 3.29236 192.316C40.7704 195.924 79.5251 199.655 117.457 199.705C117.626 199.705 117.798 199.705 117.967 199.705C172.225 199.705 213.561 188.346 246.797 179.212L247.286 179.078C255.991 176.7 263.183 174.755 269.922 172.953C303.208 164.084 331.162 156.945 362.576 152.491C402.333 146.852 445.217 143.158 486.595 141.807C523.461 140.604 558.235 141.521 592.91 144.613C630.275 147.945 666.357 153.686 703.212 162.167C754.502 173.968 805.865 191.434 855.878 214.083C858.801 215.41 861.724 216.739 864.643 218.068C887.979 228.68 912.109 239.655 936.616 249.843C1004.64 278.127 1064.72 296.984 1125.69 309.19C1148.7 313.802 1172.82 317.899 1197.38 321.368C1227.88 325.628 1257.66 328.817 1285.91 330.844C1336.51 334.478 1386.05 336.999 1435.75 328.059C1462.72 323.208 1485.06 315.187 1504.04 303.538C1538.33 282.495 1557.06 253.337 1573.59 227.609C1581.33 215.564 1588.64 204.186 1596.88 194.625C1600.05 190.946 1603.24 187.141 1606.31 183.46C1615.94 171.952 1625.89 160.054 1638.09 148.836C1652.13 135.826 1668 124.823 1685.26 116.132C1704.93 106.228 1725.89 99.635 1747.56 96.539C1761 94.6197 1774.72 93.6842 1789.45 93.6842C1789.77 93.6842 1790.09 93.6842 1790.42 93.6861C1836.23 93.8123 1883.38 104.797 1919.33 114.352C1957.64 124.533 1995.18 138.707 2027.89 155.342C2064.33 173.821 2097.28 196.14 2125.81 221.678C2151.41 244.596 2173.15 269.778 2190.41 296.529L2189.41 296.709C2163.72 256.906 2114.71 200.141 2027.16 155.744C1994.52 139.147 1957.07 125.007 1918.86 114.85C1883.01 105.32 1836 94.3673 1790.41 94.2429C1775.4 94.1965 1761.48 95.1283 1747.84 97.0772C1707.69 102.815 1669.03 121.294 1639 149.112C1626.83 160.305 1616.89 172.19 1607.28 183.685C1604.2 187.367 1601.01 191.174 1597.84 194.855C1589.62 204.392 1582.32 215.755 1574.59 227.787C1558.03 253.561 1539.26 282.775 1504.84 303.9C1485.73 315.627 1463.24 323.701 1436.09 328.585C1413.08 332.722 1388.2 334.736 1360.08 334.736Z" fill="white" fill-opacity="0.35"/>
<path d="M1316.04 344.57C1310.58 344.57 1305 344.477 1299.29 344.292C1274.29 343.48 1250 341.047 1225.24 338.411C1196.53 335.356 1167.55 331.269 1136.62 325.916C1112.15 321.643 1088.15 316.776 1065.29 311.447C1007.31 297.949 949.731 278.079 878.612 247.022C860.949 239.31 843.293 231.221 826.218 223.397C816.922 219.139 807.314 214.735 797.793 210.434C747.266 187.67 694.278 171.136 640.298 161.287C568.975 148.273 495.672 145.89 416.193 154.002C374.203 158.287 331.428 165.008 292.497 173.437C261.223 180.208 233.98 189.717 205.137 199.785L203.142 200.481C198.637 202.059 194.082 203.659 189.471 205.278C186.816 206.211 184.143 207.15 181.445 208.097C164.627 214.031 146.461 220.221 125.629 224.986C101.442 230.517 77.5192 233.238 52.4846 233.305C10.8073 233.413 -31.7037 228.301 -72.8113 223.353C-78.6778 222.645 -84.7483 221.916 -90.6394 221.224C-118.259 217.975 -140.033 216.106 -159.173 215.338C-229.803 212.503 -296.459 214.501 -342.054 220.819L-342.346 220.236C-296.631 213.901 -229.838 211.897 -159.085 214.736C-139.893 215.507 -118.062 217.381 -90.3897 220.635C-84.4951 221.329 -78.4246 222.059 -72.5546 222.766C-31.9499 227.653 10.023 232.704 51.1482 232.704C51.5913 232.704 52.0345 232.704 52.4812 232.702C105.673 232.561 143.538 220.745 180.816 207.596C183.513 206.649 186.186 205.71 188.842 204.776C193.453 203.156 198.004 201.558 202.513 199.978L204.507 199.282C233.4 189.198 260.689 179.672 292.065 172.879C331.066 164.433 373.914 157.701 415.978 153.408C495.658 145.276 569.158 147.667 640.674 160.715C694.788 170.59 747.899 187.162 798.538 209.975C808.059 214.278 817.671 218.681 826.967 222.941C844.035 230.762 861.688 238.85 879.34 246.556C950.374 277.578 1007.87 297.42 1065.75 310.896C1088.58 316.216 1112.54 321.077 1136.98 325.342C1167.86 330.688 1196.81 334.77 1225.47 337.819C1268.97 342.45 1323.12 348.215 1377.04 339.336C1404.76 334.771 1427.25 326.701 1445.79 314.662C1479.75 292.611 1495.49 261.597 1509.39 234.235C1515.42 222.348 1521.13 211.121 1527.78 201.803C1530.37 198.172 1532.97 194.417 1535.48 190.785C1543.91 178.603 1552.62 166.007 1563.82 154.028C1576.44 140.413 1591.13 128.702 1607.48 119.221C1626.01 108.478 1646.25 100.892 1667.63 96.6727C1681.35 93.9645 1695.42 92.2959 1710.63 91.5701C1731 90.5975 1752.68 91.6369 1776.92 94.7404C1797.42 97.3687 1819.4 101.449 1844.12 107.216C1883.98 116.517 1922.78 130.172 1956.31 146.705C1993.72 165.098 2026.92 187.637 2054.99 213.693C2080.27 237.157 2100.86 262.916 2116.2 290.259L2115.1 290.43C2082.72 232.704 2026.05 181.818 1955.53 147.147C1922.09 130.659 1883.4 117.042 1843.66 107.769C1790.4 95.3437 1748.17 90.3859 1710.73 92.1715C1695.62 92.8917 1681.66 94.5492 1668.03 97.2369C1617.15 107.273 1583.83 133.805 1564.84 154.293C1553.68 166.243 1544.97 178.824 1536.56 190.991C1534.04 194.625 1531.44 198.382 1528.85 202.014C1522.22 211.304 1516.52 222.519 1510.49 234.391C1496.57 261.812 1480.79 292.891 1446.67 315.042C1427.99 327.176 1405.32 335.312 1377.38 339.913C1358.44 343.031 1338.24 344.57 1316.04 344.57Z" fill="white" fill-opacity="0.35"/>
<path d="M1340.43 347.566C1303.24 347.566 1267.48 342.523 1236.89 338.209C1208.11 334.152 1179.13 329.081 1148.31 322.709C1123.97 317.641 1100.13 312.01 1077.45 305.968C1009.44 287.878 948.819 261.913 893.439 236.546C882.132 231.368 870.708 226.03 859.665 220.868C844.33 213.699 828.472 206.288 812.582 199.145C761.299 176.157 706.598 160.522 650.001 152.677C576.786 142.529 500.87 144.406 417.916 158.416C375.205 165.629 332.472 175.383 294.336 186.624C264.923 195.292 240.036 206.236 213.69 217.822C211.822 218.642 209.951 219.466 208.069 220.29L207.049 220.74C200.645 223.559 194.022 226.473 187.308 229.398C171.221 236.439 153.505 243.72 133.015 249.283C109.229 255.741 85.2494 258.961 59.6978 259.128C14.848 259.423 -30.8635 252.769 -75.0661 246.334C-78.1647 245.883 -81.2491 245.434 -84.3195 244.99C-113.469 240.769 -134.733 238.267 -153.261 236.875C-222.119 231.704 -291.419 230.078 -343.395 232.415L-343.5 231.767C-291.44 229.424 -222.038 231.052 -153.089 236.231C-134.508 237.627 -113.198 240.134 -83.996 244.363C-80.9256 244.806 -77.8411 245.255 -74.739 245.708C-30.6208 252.131 15.0028 258.768 59.6803 258.479C115.169 258.115 154.248 243.019 186.52 228.897C193.234 225.972 199.857 223.058 206.262 220.24L207.282 219.791C209.163 218.965 211.034 218.143 212.902 217.322C239.294 205.716 264.223 194.754 293.735 186.056C331.941 174.794 374.754 165.024 417.54 157.798C456.868 151.156 493.808 147.322 530.466 146.074C571.359 144.684 611.679 146.694 650.311 152.049C707.087 159.919 761.95 175.598 813.376 198.65C829.277 205.796 845.139 213.209 860.477 220.379C871.521 225.541 882.937 230.878 894.241 236.055C949.565 261.393 1010.11 287.331 1077.99 305.387C1100.65 311.42 1124.46 317.044 1148.75 322.104C1179.53 328.466 1208.46 333.53 1237.2 337.582C1281.32 343.804 1336.24 351.548 1390.5 343.399C1418.98 339.122 1441.61 331.002 1459.71 318.573C1493.32 295.485 1505.89 262.562 1516.99 233.514C1521.45 221.842 1525.66 210.818 1530.85 201.766C1532.77 198.418 1534.7 194.958 1536.56 191.611C1543.86 178.522 1551.4 164.985 1561.72 152.005C1572.94 137.774 1586.45 125.352 1601.87 115.09C1619.26 103.509 1638.78 94.9301 1659.86 89.59C1673.56 86.1227 1687.67 83.719 1703.01 82.2396C1723.68 80.248 1746.61 80.3148 1771.17 82.4383C1792.68 84.2981 1816.19 87.8044 1841.07 92.8623C1882.49 101.284 1922.54 114.42 1956.9 130.85C1995.28 149.157 2028.75 171.914 2056.36 198.49C2081.3 222.499 2100.75 248.838 2114.16 276.773L2112.97 276.932C2084.55 217.74 2028.83 166.032 1956.08 131.333C1921.83 114.956 1881.91 101.863 1840.63 93.4693C1787.13 82.5905 1742.18 79.125 1703.23 82.88C1688 84.3482 1673.99 86.7352 1660.39 90.1765C1610.22 102.882 1579.66 130.947 1562.85 152.255C1552.56 165.202 1545.03 178.72 1537.74 191.793C1535.88 195.14 1533.95 198.601 1532.03 201.953C1526.85 210.976 1522.65 221.985 1518.2 233.642C1512.86 247.616 1506.81 263.455 1498.03 278.304C1487.96 295.318 1475.75 308.619 1460.68 318.969C1451.97 324.953 1441.96 330.046 1430.93 334.107C1419.06 338.475 1405.58 341.812 1390.84 344.025C1373.98 346.558 1357.06 347.566 1340.43 347.566Z" fill="white" fill-opacity="0.35"/>
<path d="M1362.41 350.853C1350.11 350.853 1337.23 350.222 1323.62 348.961C1296.82 346.48 1271.17 341.977 1248.53 338.007C1220 333 1190.21 326.773 1160 319.499C1135.82 313.645 1112.13 307.248 1089.6 300.485C1024.93 281.093 969.218 255.31 908.267 226.068C902.851 223.469 897.35 220.819 892.032 218.254C871.088 208.158 849.434 197.719 827.371 187.856C775.237 164.598 718.827 149.866 659.705 144.067C585.129 136.752 504.355 143.063 419.639 162.827C376.168 172.969 333.474 185.755 296.176 199.804C268.092 210.382 244.974 222.853 220.499 236.058C218.012 237.4 215.515 238.746 213.004 240.097C206.754 243.464 200.022 247.078 193.174 250.695C178.814 258.307 161.313 266.981 140.404 273.576C116.998 280.96 92.9588 284.681 66.9184 284.951C19.2479 285.446 -29.2773 277.116 -76.2057 269.06L-77.9924 268.754C-100.969 264.811 -125.276 260.828 -147.342 258.41C-214.603 251.039 -284.702 245.921 -344.721 244L-344.64 243.306C-284.558 245.229 -214.395 250.35 -147.075 257.728C-124.945 260.154 -100.597 264.143 -77.5844 268.091L-75.7977 268.397C-28.9713 276.435 19.4554 284.744 66.8938 284.253C121.679 283.685 159.516 267.551 192.242 250.2C199.09 246.584 205.815 242.97 212.065 239.605C214.576 238.256 217.073 236.908 219.56 235.568C244.077 222.341 267.237 209.847 295.413 199.234C332.781 185.157 375.556 172.348 419.108 162.187C458.855 152.916 497.968 146.527 535.355 143.201C578.073 139.401 619.993 139.46 659.951 143.379C719.298 149.2 775.916 163.984 828.226 187.321C850.306 197.194 871.971 207.637 892.926 217.738C898.244 220.301 903.744 222.952 909.161 225.55C970.052 254.764 1025.71 280.52 1090.26 299.878C1112.76 306.63 1136.41 313.017 1160.55 318.864C1190.73 326.127 1220.47 332.345 1248.96 337.344C1293.61 345.18 1349.19 354.931 1403.99 347.46C1433.22 343.475 1456.01 335.306 1473.65 322.484C1506.89 298.326 1516.51 261.914 1524.24 232.656C1527.25 221.259 1530.09 210.495 1533.95 201.734C1535.16 198.972 1536.39 196.127 1537.57 193.374C1543.73 179.074 1550.1 164.286 1559.64 149.987C1574.39 127.733 1602.41 97.9645 1652.12 82.5158C1665.85 78.2504 1680.01 75.1098 1695.41 72.9159C1735.72 67.0931 1783.71 68.9771 1838.05 78.5121C1881.02 86.0536 1922.33 98.6698 1957.51 114.998C1996.87 133.218 2030.59 156.194 2057.74 183.291C2070.19 195.72 2081.2 208.995 2090.46 222.747C2099.3 235.883 2106.59 249.524 2112.14 263.291L2110.85 263.436C2086.42 202.773 2031.65 150.243 1956.64 115.52C1921.59 99.2527 1880.43 86.6847 1837.63 79.171C1783.55 69.6787 1735.81 67.8003 1695.76 73.5859C1680.47 75.7632 1666.41 78.8796 1652.79 83.1135C1603.41 98.4545 1575.56 128.071 1560.89 150.215C1551.36 164.478 1545.01 179.245 1538.86 193.526C1537.67 196.279 1536.45 199.126 1535.23 201.89C1531.39 210.621 1528.55 221.37 1525.54 232.75C1521.65 247.473 1517.25 264.16 1509.71 279.909C1501.06 298.007 1489.61 312.067 1474.71 322.892C1466.22 329.067 1456.28 334.276 1445.18 338.37C1433.22 342.782 1419.47 346.068 1404.32 348.132C1391.02 349.947 1377.13 350.853 1362.41 350.853Z" fill="white" fill-opacity="0.35"/>
<path d="M1382.67 354.324C1367.93 354.324 1352.39 353.316 1335.79 351.295C1308.89 348.023 1283.01 342.592 1260.18 337.799C1231.43 331.767 1201.66 324.53 1171.69 316.286C1147.67 309.651 1124.14 302.49 1101.76 295C1040.16 274.406 987.338 247.863 931.409 219.765C928.641 218.375 925.873 216.983 923.098 215.591C897.09 202.538 870.198 189.04 842.163 176.567C789.122 153.014 731.003 139.182 669.419 135.455C592.064 130.772 508.607 141.466 421.362 167.234C377.722 180.123 333.917 196.37 298.015 212.981C270.905 225.523 249.163 239.635 226.143 254.577C223.418 256.346 220.685 258.12 217.931 259.899C212.43 263.457 205.885 267.676 199.034 271.991C186.344 280.004 169.054 290.187 147.79 297.847C124.756 306.146 100.664 310.376 74.1351 310.776C52.3292 311.063 28.2654 309.287 0.564819 305.343C-23.2177 301.957 -46.2229 297.532 -71.6795 292.52C-94.9168 287.889 -119.441 283.106 -141.444 279.947C-206.619 270.588 -275.463 262.393 -346.057 255.585L-345.804 254.855C-275.167 261.666 -206.285 269.868 -141.075 279.23C-119.012 282.399 -94.4526 287.19 -71.1871 291.824C-28.5179 300.227 24.5865 310.688 74.0964 310.033C130.7 309.179 167.078 291.015 197.954 271.513C204.802 267.201 211.343 262.984 216.841 259.427C219.595 257.649 222.327 255.874 225.049 254.107C248.107 239.141 269.889 225.005 297.086 212.422C333.063 195.778 376.952 179.5 420.677 166.587C508.185 140.74 591.93 130.019 669.58 134.718C699.352 136.521 728.597 140.706 756.494 147.158C786.428 154.08 815.557 163.786 843.071 176.001C871.137 188.487 898.046 201.993 924.069 215.054C926.844 216.448 929.616 217.838 932.383 219.229C988.259 247.303 1041.04 273.82 1102.51 294.375C1124.86 301.853 1148.36 309.005 1172.34 315.629C1202.27 323.859 1232 331.087 1260.7 337.11C1305.81 346.577 1361.96 358.358 1417.47 351.525C1447.54 347.824 1470.48 339.605 1487.58 326.401C1520.52 301.179 1526.39 262.651 1531.1 231.695C1532.79 220.623 1534.38 210.165 1537.03 201.709C1537.57 199.964 1538.12 198.21 1538.66 196.446C1543.59 180.519 1548.69 164.047 1557.56 147.973C1570.21 124.853 1595.54 93.5028 1644.36 75.4462C1657.98 70.4087 1672.19 66.5331 1687.8 63.5966C1709.51 59.4779 1733.69 57.5419 1759.69 57.8389C1783.42 58.1099 1808.76 60.2389 1835 64.1646C1879.52 70.8226 1922.09 82.9191 1958.11 99.1455C1998.44 117.276 2032.42 140.474 2059.11 168.092C2071.35 180.764 2081.96 194.312 2090.62 208.359C2098.93 221.812 2105.48 235.76 2110.1 249.812L2108.72 249.939C2088.58 188.703 2033.35 133.946 1957.2 99.7098C1921.33 83.5539 1878.95 71.5075 1834.62 64.8755C1779.96 56.6974 1729.35 56.4969 1688.27 64.2927C1672.77 67.2068 1658.67 71.0528 1645.16 76.0513C1596.68 93.9836 1571.5 125.172 1558.91 148.177C1550.06 164.209 1544.97 180.656 1540.05 196.563C1539.5 198.327 1538.96 200.083 1538.41 201.827C1535.78 210.252 1534.19 220.697 1532.5 231.752C1527.77 262.798 1521.89 301.437 1488.73 326.82C1480.49 333.185 1470.63 338.512 1459.44 342.649C1447.39 347.1 1433.38 350.33 1417.79 352.249C1406.54 353.63 1394.88 354.324 1382.67 354.324Z" fill="white" fill-opacity="0.35"/>
<path d="M1401.7 357.939C1384.91 357.939 1367.12 356.506 1347.95 353.629C1320.83 349.558 1294.79 343.201 1271.82 337.593C1242.79 330.507 1213.03 322.256 1183.37 313.076C1159.52 305.67 1136.15 297.742 1113.9 289.517C1059.12 269.271 1012.29 244.467 962.719 218.206C954.616 213.913 946.235 209.475 937.92 205.111C908.693 189.779 883.736 177.137 856.946 165.278C802.959 141.414 743.134 128.482 679.126 126.841C598.698 124.779 512.547 139.851 423.072 171.637C378.624 187.429 334.857 206.789 299.837 226.152C273.456 240.74 252.832 256.619 230.998 273.43C228.293 275.513 225.578 277.603 222.845 279.695C217.977 283.427 211.534 288.346 204.883 293.278C176.894 314.082 140.327 335.5 81.3423 336.595C79.5029 336.626 77.6565 336.641 75.8135 336.641C29.7538 336.641 -17.2695 327.021 -65.3762 316.279L-68.3798 315.604C-92.208 310.236 -114.717 305.167 -135.552 301.477C-214.071 287.57 -290.009 275.832 -347.393 267.16L-346.982 266.401C-289.583 275.077 -213.625 286.817 -135.078 300.728C-114.186 304.428 -91.6523 309.504 -67.7924 314.878L-64.7923 315.553C-14.9236 326.688 33.7773 336.621 81.2896 335.808C139.62 334.724 175.881 313.471 203.663 292.823C210.31 287.895 216.746 282.98 221.614 279.249C224.347 277.155 227.059 275.067 229.763 272.985C251.632 256.148 272.288 240.242 298.754 225.608C333.844 206.204 377.699 186.806 422.235 170.982C463.572 156.296 504.922 145.02 545.136 137.464C591.277 128.794 636.383 124.955 679.197 126.052C743.535 127.701 803.663 140.695 857.903 164.671C884.731 176.549 909.713 189.204 938.968 204.549C947.286 208.912 955.667 213.352 963.774 217.646C1013.3 243.88 1060.08 268.66 1114.76 288.866C1136.97 297.081 1160.31 304.996 1184.12 312.391C1213.74 321.56 1243.45 329.798 1272.44 336.873C1317.94 347.982 1374.58 361.807 1430.94 355.583C1461.75 352.181 1484.83 343.914 1501.49 330.31C1534.02 303.94 1535.98 263.244 1537.55 230.544C1538.06 219.875 1538.55 209.796 1540.1 201.675L1540.14 201.49C1543.61 183.305 1547.21 164.502 1555.46 145.95C1562.6 129.768 1572.55 115.22 1585.03 102.706C1599.1 88.5972 1616.44 77.0446 1636.59 68.3671C1650.07 62.5611 1664.32 57.9486 1680.18 54.2679C1723 44.2651 1775.48 42.7208 1831.95 49.8057C1854.67 52.6567 1877.09 56.976 1898.58 62.6409C1920.19 68.3393 1940.42 75.2868 1958.7 83.2868C2000.01 101.33 2034.25 124.748 2060.48 152.888C2084.05 178.182 2100.51 207.036 2108.07 236.328L2106.59 236.434C2090.4 173.74 2036.16 118.141 1957.75 83.8938C1921.08 67.853 1877.46 56.33 1831.61 50.5779C1775.46 43.5338 1723.31 45.0614 1680.78 54.9955C1665.06 58.6484 1650.91 63.2238 1637.54 68.9834C1599.93 85.1857 1572.05 111.864 1556.92 146.134C1548.69 164.638 1545.1 183.415 1541.63 201.573L1541.59 201.759C1540.04 209.85 1539.56 219.914 1539.05 230.568C1537.47 263.368 1535.5 304.186 1502.75 330.742C1494.71 337.302 1484.92 342.744 1473.66 346.917C1461.52 351.416 1447.25 354.592 1431.25 356.361C1421.72 357.411 1411.89 357.939 1401.7 357.939Z" fill="white" fill-opacity="0.35"/>
<path d="M82.4357 362.484C61.8397 362.484 39.4113 360.366 14.0988 356.041C-11.0518 351.744 -35.9246 345.812 -59.06 340.043C-63.2488 338.992 -67.406 337.944 -71.5351 336.902C-92.0889 331.718 -111.503 326.822 -129.648 323.007C-201.998 307.804 -270.961 294.139 -337.655 280.927L-348.706 278.736L-348.15 277.955L-337.099 280.145C-270.401 293.361 -201.428 307.026 -129.064 322.233C-110.87 326.057 -91.4312 330.959 -70.8527 336.151C-66.7272 337.192 -62.57 338.241 -58.3847 339.289C-10.8936 351.132 39.5625 362.608 88.4991 361.585C148.655 360.264 184.705 335.533 209.388 314.137C215.712 308.665 221.803 303.212 226.404 299.072C228.943 296.791 231.465 294.512 233.98 292.238C254.836 273.389 274.535 255.585 300.442 238.798C334.638 216.643 378.451 194.12 423.814 175.383C465.899 157.998 508.368 144.262 550.046 134.559C597.85 123.427 644.542 117.651 688.826 117.389C755.461 116.866 817.351 128.964 872.752 153.345C903.463 166.876 930.998 181.513 953.887 194.048C966.341 200.869 978.795 207.861 990.841 214.623C1033.48 238.562 1077.57 263.314 1127.02 283.362C1149.1 292.32 1172.29 300.999 1195.92 309.157C1225.16 319.23 1254.86 328.477 1284.19 336.641C1330.04 349.4 1387.1 365.279 1444.43 359.644C1475.98 356.542 1499.2 348.227 1515.42 334.222C1547.52 306.657 1545.35 263.731 1543.61 229.24C1543.1 219.041 1542.61 209.406 1543.2 201.649C1544.51 184.162 1546.5 163.839 1553.38 143.934C1559.18 127.067 1567.94 111.808 1579.41 98.5809C1592.39 83.6185 1609.02 71.0746 1628.84 61.2965C1641.97 54.8167 1656.68 49.3169 1672.57 44.9475C1695.24 38.6923 1720.68 34.7592 1748.18 33.2594C1773.94 31.8543 1801.1 32.5931 1828.91 35.4534C1852.35 37.8664 1875.46 41.8348 1897.6 47.251C1919.87 52.7007 1940.63 59.4904 1959.31 67.431C1980.84 76.5744 2000.64 87.3716 2018.15 99.5238C2034.74 111.037 2049.45 123.878 2061.86 137.688C2085.08 163.524 2100.36 192.973 2106.04 222.848L2104.46 222.931C2092.26 158.777 2038.99 102.338 1958.32 68.0825C1921.37 52.3758 1875.31 41.0793 1828.6 36.2738C1770.86 30.3323 1717.15 33.5879 1673.3 45.6882C1657.54 50.0223 1642.94 55.4793 1629.92 61.9071C1592.58 80.3312 1567.35 107.979 1554.94 144.084C1548.07 163.936 1546.09 184.223 1544.77 201.682C1544.19 209.411 1544.68 219.032 1545.19 229.218C1546.05 246.233 1547.03 265.521 1543.76 284.166C1539.97 305.801 1531.15 322.317 1516.77 334.658C1508.95 341.411 1499.24 346.97 1487.91 351.18C1475.67 355.727 1461.13 358.851 1444.72 360.464C1436.43 361.279 1428.16 361.649 1419.93 361.649C1370.67 361.649 1322.93 348.362 1283.46 337.378C1254.08 329.201 1224.34 319.941 1195.06 309.853C1171.39 301.684 1148.17 292.992 1126.06 284.021C1076.51 263.932 1032.37 239.154 989.691 215.193C977.649 208.433 965.198 201.443 952.751 194.625C929.894 182.106 902.397 167.488 871.742 153.983C816.64 129.733 755.113 117.705 688.851 118.221C584.791 118.837 487.818 150 424.792 176.036C379.52 194.737 335.796 217.211 301.673 239.321C275.843 256.058 256.172 273.834 235.348 292.654C232.833 294.928 230.308 297.207 227.768 299.49C223.165 303.631 217.07 309.088 210.742 314.566C200.381 323.547 184.114 336.622 162.569 346.423C152.105 351.182 140.97 354.922 129.473 357.541C116.653 360.461 102.888 362.101 88.566 362.415C86.5366 362.462 84.4932 362.484 82.4357 362.484Z" fill="white" fill-opacity="0.35"/>
<path d="M89.0485 388.325C68.4278 388.325 46.0451 386.044 20.8664 381.389C-5.20224 376.57 -30.9754 369.796 -52.7462 363.802C-59.4356 361.957 -66.1111 360.086 -72.5684 358.276C-90.6181 353.218 -107.669 348.439 -123.745 344.537C-181.478 330.523 -238.835 316.842 -294.306 303.609C-312.655 299.232 -331.626 294.707 -350.013 290.312L-349.324 289.508C-330.937 293.903 -311.966 298.429 -293.617 302.805C-238.146 316.038 -180.782 329.721 -123.046 343.737C-106.927 347.65 -89.8549 352.433 -71.7841 357.499C-65.3303 359.308 -58.6548 361.177 -51.9724 363.022C-6.8201 375.447 45.5527 388.6 95.7028 387.362C157.276 385.807 191.86 358.802 215.115 335.449C221.076 329.467 226.841 323.461 231.195 318.896C233.432 316.554 235.654 314.213 237.874 311.878C257.823 290.876 276.664 271.039 302.134 251.99C335.262 227.214 379.039 201.571 425.394 179.786C489.95 149.577 589.726 112.729 698.453 108.733C767.599 106.123 831.24 117.323 887.601 142.024C912.924 153.128 937.966 165.935 968.804 183.556C984.388 192.46 999.853 201.688 1014.81 210.611C1053.72 233.826 1093.95 257.831 1139.28 277.868C1161.24 287.578 1184.26 297.02 1207.72 305.933C1236.11 316.715 1265.8 326.972 1295.95 336.42C1342.26 350.844 1399.89 368.799 1457.91 363.717C1489.72 360.988 1513.75 352.385 1529.35 338.148C1561.01 309.335 1554.21 262.197 1549.25 227.778C1547.86 218.119 1546.54 208.996 1546.29 201.636C1545.71 185.28 1545.76 163.714 1551.31 141.932C1560.88 104.187 1584.36 74.6818 1621.09 54.2401C1633.96 47.0382 1648.72 40.7812 1664.96 35.6415C1688.06 28.3209 1714.13 23.3965 1742.43 21.0077C1769.1 18.758 1797.17 18.7933 1825.86 21.1135C1850.07 23.1144 1873.87 26.7413 1896.61 31.8903C1919.58 37.0912 1940.87 43.7176 1959.91 51.5858C1981.93 60.6772 2002.04 71.5115 2019.68 83.7899C2036.41 95.426 2051.06 108.449 2063.24 122.5C2086.1 148.879 2100.2 178.923 2104.02 209.382L2102.35 209.44C2094.13 143.821 2041.84 86.5388 1958.89 52.2818C1921.27 36.7404 1873.94 25.9803 1825.61 21.9859C1766.02 17.1692 1710.77 22.1529 1665.83 36.3988C1649.72 41.4958 1635.08 47.7027 1622.31 54.847C1585.82 75.1532 1562.49 104.491 1552.97 142.05C1547.43 163.773 1547.39 185.297 1547.96 201.622C1548.22 208.955 1549.53 218.067 1550.92 227.713C1553.49 245.504 1556.39 265.671 1554.73 285.36C1552.79 308.285 1544.97 325.697 1530.8 338.592C1523.18 345.547 1513.54 351.227 1502.15 355.474C1489.8 360.079 1475.01 363.145 1458.18 364.589C1432.09 366.874 1404 364.821 1372.31 358.312C1344.77 352.652 1318.38 344.433 1295.1 337.183C1264.91 327.722 1235.18 317.45 1206.75 306.653C1183.26 297.727 1160.2 288.272 1138.21 278.549C1092.78 258.471 1052.51 234.44 1013.56 211.201C998.611 202.28 983.15 193.057 967.58 184.161C936.795 166.572 911.799 153.789 886.536 142.711C830.509 118.151 767.272 107.018 698.566 109.611C590.306 113.592 490.861 150.327 426.498 180.445C380.235 202.186 336.549 227.775 303.492 252.498C278.092 271.494 259.279 291.303 239.361 312.274C237.142 314.611 234.919 316.951 232.683 319.294C228.325 323.862 222.557 329.874 216.588 335.861C193.129 359.422 158.198 386.668 95.7766 388.244C93.5574 388.298 91.31 388.325 89.0485 388.325Z" fill="white" fill-opacity="0.35"/>
<path d="M95.794 414.168C39.4503 414.168 -19.6682 395.906 -72.0763 379.715C-88.181 374.74 -103.392 370.04 -117.848 366.066L-351.322 301.886L-350.509 301.064L-117.035 365.244C-102.541 369.227 -87.3122 373.933 -71.1864 378.915C-16.7526 395.731 44.9475 414.792 102.905 413.14C165.837 411.349 198.989 382.07 220.84 356.765C227.987 348.489 234.887 340.067 241.563 331.923C259.82 309.649 278.696 286.616 303.819 265.179C323.768 248.159 348.549 230.308 375.483 213.56C405.03 195.186 436.666 178.329 469.505 163.457C505.713 147.062 542.53 133.499 578.928 123.147C619.188 111.699 658.85 104.224 696.821 100.929C772.885 94.3306 842.066 104.344 902.436 130.696C952.607 152.593 995.249 179.671 1036.49 205.857C1072.38 228.65 1109.5 252.218 1151.53 272.365C1200.07 295.633 1252.61 317.107 1307.7 336.186C1354.1 352.262 1411.86 372.271 1471.39 367.774C1521.66 363.976 1550.73 346.224 1560.25 313.5C1568.34 285.666 1560.64 252.647 1554.45 226.117C1552.34 217.076 1550.35 208.535 1549.37 201.61C1543.98 163.433 1547.42 131.918 1559.89 105.265C1567.67 88.6359 1579.15 73.8128 1594.01 61.2077C1610.6 47.127 1631.91 35.3887 1657.34 26.3196C1679.34 18.4737 1704.13 12.7753 1731.04 9.38231C1756.64 6.15262 1783.61 5.07049 1811.17 6.16561C1865.39 8.31874 1918.42 18.8171 1960.5 35.7247C1983 44.7623 2003.42 55.6356 2021.2 68.0402C2038.06 79.797 2052.66 93.0034 2064.6 107.296C2087.1 134.219 2100.02 164.858 2101.97 195.899L2100.21 195.93C2096.06 129.829 2043.44 70.2156 1959.43 36.4653C1870.22 0.623162 1743.59 -3.32114 1658.32 27.0899C1573.85 57.2151 1538.79 114.279 1551.12 201.541C1552.1 208.444 1554.09 216.973 1556.19 226.004C1562.4 252.591 1570.12 285.68 1561.98 313.641C1557.55 328.871 1548.64 341.11 1535.51 350.022C1528.13 355.032 1519.23 359.126 1509.05 362.189C1498.22 365.448 1485.63 367.637 1471.63 368.695C1465.91 369.127 1460.09 369.344 1454.17 369.344C1432.6 369.344 1409.62 366.465 1384.45 360.633C1356.09 354.063 1328.72 344.581 1306.72 336.964C1251.57 317.857 1198.95 296.355 1150.34 273.053C1108.21 252.864 1071.06 229.269 1035.13 206.451C993.94 180.298 951.352 153.254 901.307 131.413C841.341 105.241 772.635 95.2921 697.095 101.846C544.292 115.103 386.889 196.06 305.303 265.669C280.247 287.047 261.396 310.048 243.163 332.292C236.484 340.44 229.58 348.867 222.426 357.151C207.918 373.951 193.59 385.981 177.334 395.006C167.187 400.637 156.179 405.077 144.615 408.201C131.756 411.674 117.751 413.649 102.986 414.07C100.602 414.135 98.1996 414.168 95.794 414.168Z" fill="white" fill-opacity="0.35"/>
</g>
</svg>
