<svg width="844" height="414" viewBox="0 0 844 414" fill="none" xmlns="http://www.w3.org/2000/svg">
<path d="M665.24 191.809C668.376 194.598 670.585 197.988 672.092 202.557C675.889 214.69 661.108 227.847 645.454 241.74C636.879 249.389 627.992 257.284 622.221 265.099C608.956 276.695 611.847 295.383 614.619 313.47C616.656 326.686 618.552 339.165 614.668 349.035L614.657 349.055C611.362 356.482 604.255 360.171 592.95 360.331C570.895 360.648 536.038 347.401 495.665 332.042L491.785 330.571C461.773 319.188 422.726 304.949 365.196 284.372L360.414 282.622C309.959 264.175 247.151 241.203 190.22 210.511C69.4453 149.292 45.8637 92.5696 68.0291 73.5271C96.4104 53.4657 150.029 53.0517 273.04 71.9216C401.391 91.6997 539.006 141.127 592.204 161.46C611.674 169.87 626.363 175.046 637.078 178.813C650.645 183.603 659.515 186.719 665.24 191.809ZM609.804 347.504C613.607 337.852 611.711 325.489 609.727 312.408C606.912 294.108 603.998 275.167 617.575 263.325C623.325 255.491 632.264 247.555 640.881 239.885C656.286 226.177 670.838 213.224 667.254 201.688C663.441 190.297 656.5 187.849 635.888 180.577C624.994 176.738 610.044 171.474 590.448 163.011C537.857 142.927 401.26 93.852 274.05 74.245C152.809 55.6392 100.067 55.9609 72.498 75.4641C51.0189 93.9533 74.309 149.34 192.795 209.397C249.181 239.779 311.548 262.592 361.637 280.916L366.397 282.647C423.979 303.242 463.079 317.498 493.165 328.917L497.045 330.389C536.285 345.322 570.167 358.197 590.329 357.913C600.4 357.761 606.746 354.356 609.804 347.504Z" fill="#A7CEFC" fill-opacity="0.43"/>
<path d="M645.059 196.122C649.381 199.968 651.891 204.117 654.526 209.857L654.589 209.972C657.637 221.071 645.409 230.419 632.476 240.301C623.619 247.048 614.513 254.037 608.95 262.234C598.094 273.906 595.46 288.163 592.896 301.931C591.198 311.187 589.579 319.934 585.608 327.661L585.505 327.802C568.381 343.881 541.582 333.848 492.926 315.658C487.637 313.68 482.066 311.596 476.171 309.427C465.497 305.124 453.83 300.547 441.453 295.687C386.435 274.099 311.074 244.51 228.941 201.842C134.178 149.474 112.452 107.039 132.913 88.1838C155.021 69.2263 212.686 74.044 318.284 90.3421C426.918 108.471 525.547 145.385 578.53 165.221L584.435 167.428C621.34 182.272 636.667 188.655 645.059 196.122ZM649.725 209.068C642.486 193.398 637.194 190.894 582.956 169.043L577.207 166.888C524.631 147.212 426.744 110.581 319.332 92.6386C215.498 76.6038 158.812 71.7876 137.523 90.0515C117.715 108.298 139.131 149.615 231.675 200.763C313.202 243.124 388.239 272.57 443.016 294.089C455.394 298.949 467.06 303.526 477.661 307.792C483.399 309.909 488.97 311.993 494.29 313.97C542.998 332.178 565.283 340.514 580.863 325.993C584.742 318.387 586.319 309.719 588.028 300.56C590.571 286.657 593.256 272.3 604.247 260.487C609.851 252.21 619.05 245.159 627.969 238.352C640.601 228.696 652.539 219.553 649.725 209.068Z" fill="#A7CEFC" fill-opacity="0.43"/>
<path d="M628.791 199.647C634.298 204.55 636.474 209.211 637.846 215.07C638.933 224.907 627.719 233.272 615.883 242.127C608.821 247.377 601.562 252.828 596.16 258.947C586.582 267.58 581.342 277.582 576.224 287.23C572.032 295.15 568.097 302.632 562.112 308.638L562.008 308.719C542.964 321.157 515.173 310.129 464.695 290.092L464.111 289.861L455.27 286.137C405.034 264.924 336.218 235.868 264.327 195.204C182.872 147.07 174.482 114.76 191.982 101.701C210.621 87.7424 258.287 89.16 356.497 106.586C425.66 119.372 500.029 141.719 577.518 172.99C606.201 185.132 620.916 192.637 628.791 199.647ZM557.509 306.772C563.349 300.87 567.275 293.466 571.395 285.626C576.522 275.9 581.855 265.836 591.506 257.123C596.907 250.946 604.27 245.471 611.384 240.18C623.033 231.507 634.01 223.307 632.979 214.012C629.911 200.673 622.468 194.25 575.78 174.515C499.094 143.583 425.549 121.476 357.252 108.852C260.917 91.762 214.312 90.2454 196.419 103.65C178.266 117.202 193.105 150.469 267.245 194.294C338.573 234.63 407.033 263.544 457.05 284.649L466.245 288.516C517.078 308.694 540.35 317.932 557.509 306.772Z" fill="#A7CEFC" fill-opacity="0.43"/>
<path d="M612.26 201.56C618.402 207.031 621.023 212.288 621.291 218.257L621.302 218.295C621.093 227.31 610.283 234.986 598.874 243.112C593.573 246.868 588.137 250.765 583.472 254.943C576.075 260.566 570.302 266.709 564.756 272.648C557.931 279.938 551.487 286.844 542.963 291.52C523.259 299.867 496.734 289.783 455.321 272.196C414.433 254.006 353.604 225.809 296.818 190.566C246.553 156.76 227.21 130.734 242.238 117.209C258.4 102.611 311.625 104.04 388.277 121.127C475.699 138.751 549.429 169.092 569.923 177.971C591.211 187.441 604.53 194.675 612.26 201.56ZM616.434 217.085C615.892 205.924 608.504 197.434 567.96 179.406C547.789 170.669 475.017 140.718 388.696 123.324C313.958 106.668 262.259 105.122 246.819 119.091C232.514 131.986 251.467 157.115 300.168 189.874C356.38 224.751 416.761 252.752 457.305 270.78C499.916 288.884 521.877 296.64 538.847 289.446C547.051 284.918 553.422 278.092 560.185 270.863C565.783 264.883 571.546 258.702 579.015 253.057C583.66 248.86 589.189 244.959 594.5 241.183C605.63 233.185 616.212 225.654 616.434 217.085Z" fill="#A7CEFC" fill-opacity="0.43"/>
<path d="M595.821 202.759C602.334 208.562 604.996 214.027 604.557 219.826L604.506 219.983C592.383 242.585 538.236 270.839 527.523 276.276L527.233 276.365C508.36 281.01 485.273 273.051 449.296 256.76C416.385 241.38 368.307 216.94 325.914 187.762C288.237 160.847 275.025 140.111 288.68 129.343C303.862 117.39 349.267 119.117 413.239 134.059C473.359 147.074 529.057 167.514 561.113 182.307C577.662 190.052 588.911 196.603 595.821 202.759ZM599.713 218.46C600.458 207.353 589.397 197.904 558.953 183.651C527.491 169.127 472.76 149.056 413.523 136.221C352.326 121.928 307.377 120.087 293.175 131.265C280.263 141.423 293.127 161.299 329.438 187.2C371.341 216.028 418.919 240.196 451.455 255.416C485.872 271.01 506.494 278.191 523.452 274.124C554.225 258.506 590.387 235.717 599.713 218.46Z" fill="#A7CEFC" fill-opacity="0.43"/>
<path d="M580.157 203.962C587.126 210.171 589.703 215.676 587.585 220.005C579.457 237.306 542.781 256.403 514.896 262.693C508.069 263.808 499.197 262.928 488.518 260.119C455.597 251.457 404.756 223.993 352.51 186.635C325.168 165.481 316.899 149.238 329.193 140.852C343.13 131.357 380.899 133.123 432.771 145.692C498.97 162.093 552.596 182.7 576.299 200.813C577.727 201.883 579.009 202.939 580.157 203.962ZM346.533 178.215C349.412 180.781 352.614 183.431 356.168 186.164C407.434 222.823 457.006 249.734 488.649 258.039C498.04 260.509 505.688 261.282 511.417 260.344C538.721 254.174 574.829 235.409 582.805 218.405C584.973 213.919 581.439 207.965 572.589 201.208C549.804 183.797 497.561 163.815 432.848 147.783C383.655 135.868 346.549 133.998 333.604 142.816C323.704 149.577 328.318 161.986 346.533 178.215Z" fill="#A7CEFC" fill-opacity="0.43"/>
<path d="M562.956 203.64C569.423 209.402 572.008 214.596 570.418 218.787C564.847 233.737 534.206 248.546 504.848 250.452L504.786 250.454C477.06 251.617 423.168 224.839 376.717 186.801C357.812 170.562 353.354 158.15 364.219 151.818C376.663 144.553 407.061 146.176 447.644 156.268C497.222 168.767 538.76 185.201 558.797 200.252C560.329 201.414 561.726 202.543 562.956 203.64ZM502.012 248.04C530.468 246.17 560.21 231.802 565.598 217.266C567.279 212.839 563.654 207.122 555.12 200.703C535.979 186.335 495.803 170.508 447.627 158.362C408.934 148.741 380.07 147.098 368.493 153.864C358.527 159.696 362.772 171.283 380.592 186.555C424.677 222.629 476.909 249.083 502.012 248.04Z" fill="#A7CEFC" fill-opacity="0.43"/>
<path d="M545.77 203.09C551.423 208.128 553.89 212.725 552.889 216.545C549.484 229.958 523.821 240.388 496.837 239.351C470.66 238.109 427.608 215.586 398.862 188.15C386.537 176.098 384.879 166.933 394.128 162.311C404.73 157.017 428.18 158.345 458.453 165.983C493.982 175.009 524.93 187.527 541.246 199.464C542.954 200.697 544.435 201.901 545.77 203.09ZM407.609 192.331C434.852 216.607 472.128 235.861 494.737 236.931C519.927 237.901 544.856 227.712 548.079 215.12C549.13 210.969 545.528 205.737 537.641 199.952C522.211 188.659 492.594 176.749 458.415 168.059C429.949 160.875 408.054 159.546 398.32 164.399C389.981 168.559 391.654 176.987 402.998 188.107C404.521 189.522 406.045 190.937 407.609 192.331Z" fill="#A7CEFC" fill-opacity="0.43"/>
<path d="M528.715 202.455C533.264 206.508 535.436 210.265 535.074 213.498C533.79 224.7 513.809 231.733 490.529 229.176C467.403 226.555 436.154 209.526 419.411 190.445C412.084 181.979 412.145 175.557 419.591 172.361C428.02 168.74 444.953 169.718 466.043 175.036C490.166 181.148 511.278 189.782 523.939 198.721C525.732 199.971 527.337 201.228 528.715 202.455ZM489.04 226.809C510.182 229.138 529.045 222.439 530.232 212.191C530.653 208.548 527.263 204.082 520.427 199.263C508.808 191.079 488.466 182.785 466.015 177.093C446.65 172.213 431.252 171.273 423.702 174.492C417.166 177.284 417.215 183.023 423.8 190.625C439.226 208.244 468.509 224.476 489.04 226.809Z" fill="#A7CEFC" fill-opacity="0.43"/>
<path d="M512.048 201.818C515.201 204.627 517.035 207.389 517.094 209.871C517.409 218.164 503.282 222.588 485.651 219.754C468.062 216.898 447.07 205.112 438.856 193.455C435.052 188.071 435.969 183.999 441.373 181.987C447.336 179.778 458.258 180.367 471.294 183.592C489.216 188.045 504.489 195.084 512.048 201.818ZM512.27 208.698C512.004 201.548 493.669 191.231 471.339 185.686C459.925 182.865 450.425 182.299 445.394 184.18C440.901 185.847 440.187 189.29 443.425 193.881C450.854 204.403 469.356 214.985 484.671 217.463C500.161 219.952 512.537 216.023 512.27 208.698Z" fill="#A7CEFC" fill-opacity="0.43"/>
<path d="M495.992 201.414C497.706 202.94 498.786 204.452 499.066 205.859C500.023 210.677 492.32 212.934 481.845 210.871C471.506 208.841 460.629 202.598 457.641 196.985C456.2 194.282 457.079 192.229 460.189 191.236C463.454 190.178 468.92 190.415 475.173 191.903C484.028 194.029 491.833 197.709 495.992 201.414ZM465.221 201.043C469.004 204.412 475.289 207.491 481.301 208.678C489.175 210.22 495.001 208.52 494.239 204.86C493.529 201.217 485.02 196.36 475.312 194.053C470.474 192.899 466.515 192.702 464.089 193.494C461.892 194.2 461.279 195.68 462.331 197.659C462.972 198.78 463.967 199.926 465.221 201.043Z" fill="#A7CEFC" fill-opacity="0.43"/>
</svg>
