<svg width="353" height="555" viewBox="0 0 353 555" fill="none" xmlns="http://www.w3.org/2000/svg">
<g opacity="0.2">
<path d="M498.814 209.957C499.876 213.919 499.781 219.018 498.382 226.147C494.491 245.117 473.941 269.007 452.201 294.241C440.269 308.126 427.922 322.464 418.316 336.125C399.998 357.222 391.45 386.959 383.153 415.745C377.101 436.776 371.363 456.64 362.171 473.296L362.15 473.33C354.913 485.929 346.591 493.147 336.727 495.39C317.481 499.778 295.19 484.46 269.381 466.694L266.898 464.994C247.692 451.842 222.367 435.656 184.816 412.457L181.719 410.466C149.022 389.471 108.327 363.324 77.2737 323.649C9.09544 245.783 22.2481 158.124 52.6589 123.412C89.0434 85.9602 135.623 75.8734 230.767 84.8089C329.989 94.2762 419.69 150.101 453.642 173.666C465.495 183.857 475.128 189.655 482.161 193.87C491.053 199.239 496.876 202.724 498.814 209.957ZM358.874 471.672C367.865 455.382 373.535 435.708 379.554 414.886C387.939 385.762 396.617 355.62 415.35 334.07C424.949 320.382 437.365 305.968 449.346 292.042C470.761 267.151 490.993 243.632 494.715 225.591C498.154 207.825 493.603 205.083 480.09 196.933C472.945 192.634 463.137 186.74 451.207 176.484C417.633 153.217 328.603 97.7827 230.266 88.3917C136.495 79.573 90.7286 89.3563 55.3756 125.763C25.8851 159.458 13.27 245.007 80.1577 321.394C110.923 360.662 151.332 386.63 183.783 407.49L186.874 409.455C224.459 432.673 249.82 448.878 269.068 462.075L271.551 463.776C296.632 481.053 318.3 495.939 335.892 491.938C344.684 489.924 352.18 483.298 358.874 471.672Z" fill="#A7CEFC"/>
<path d="M475.059 222.108C476.527 227.586 476.244 233.875 475.127 242.724L475.115 242.899C471.18 260.37 455.041 277.691 437.974 296.001C426.299 308.506 414.264 321.45 404.585 335.729C388.258 356.577 377.527 380.173 367.146 402.962C360.19 418.279 353.604 432.755 345.583 445.991L345.41 446.237C321.039 475.34 303.752 463.783 272.351 442.841C268.939 440.563 265.344 438.163 261.519 435.683C254.816 430.582 247.414 425.212 239.565 419.505C204.662 394.172 156.866 359.439 110.949 304.679C59.8305 236.407 66.14 171.387 95.0494 137.192C125.447 102.541 172.581 100.201 254.464 108.044C337.894 118.322 401.52 160.841 435.697 183.69L439.508 186.231C462.704 203.815 472.209 211.471 475.059 222.108ZM471.433 242.289C474.443 218.14 471.339 215.01 437.269 189.112L433.562 186.628C399.644 163.966 336.493 121.776 254.011 111.585C173.501 103.859 127.216 106.029 97.9395 139.41C69.9568 172.502 64.0406 235.764 113.958 302.448C159.532 356.815 207.132 391.372 241.867 416.637C249.716 422.343 257.118 427.713 263.779 432.768C267.499 435.192 271.094 437.592 274.535 439.862C305.97 460.823 320.348 470.423 342.458 444.121C350.327 431.096 356.83 416.756 363.739 401.595C374.181 378.59 385.016 354.824 401.543 333.722C411.305 319.307 423.458 306.247 435.223 293.632C451.895 275.741 467.66 258.805 471.433 242.289Z" fill="#A7CEFC"/>
<path d="M455.285 232.422C457.159 239.416 456.282 246.605 453.998 255.881C449.106 271.671 434.405 287.238 418.874 303.712C409.627 313.486 400.09 323.623 391.769 334.517C378.33 350.231 367.846 367.405 357.679 383.98C349.339 397.587 341.483 410.437 332.723 421.249L332.585 421.4C308.668 444.966 291.079 431.951 259.133 408.305L258.762 408.034L253.295 403.542C222.257 377.942 179.739 342.878 141.436 289.499C99.26 225.671 111.143 174.662 134.086 150.359C158.553 124.394 199.103 118.289 274.046 129.274C326.519 137.844 377.84 161.03 426.576 198.161C444.28 212.827 452.606 222.424 455.285 232.422ZM329.833 419.031C338.406 408.411 346.207 395.69 354.436 382.227C364.658 365.523 375.26 348.232 388.81 332.374C397.165 321.386 406.806 311.193 416.122 301.343C431.384 285.198 445.78 269.94 450.399 255.022C455.649 233.892 452.996 224.77 424.162 200.945C375.922 164.222 325.174 141.282 273.357 132.821C199.843 122.052 160.273 127.81 136.782 152.743C112.98 177.96 106.129 229.388 144.51 287.507C182.517 340.452 224.812 375.348 255.724 400.811L261.415 405.471C293.585 429.285 308.312 440.188 329.833 419.031Z" fill="#A7CEFC"/>
<path d="M436.815 240.05C438.91 247.868 438.067 255.96 434.754 265.626L434.74 265.687C429.201 280.396 415.231 294.798 400.473 310.039C393.626 317.089 386.58 324.393 380.036 332.017C370.257 342.475 361.582 353.493 353.225 364.14C342.953 377.21 333.241 389.588 323.043 398.704C300.933 415.773 283.84 404.05 258.246 382.749C233.468 360.374 197.281 325.238 168.801 277.919C145.141 231.789 143.771 192.853 164.888 168.184C187.63 141.57 233.106 134.486 289.666 148.744C355.283 161.972 401.424 198.317 413.985 209.145C426.885 220.794 434.178 230.211 436.815 240.05ZM431.223 264.577C437.383 246.51 435.998 233.999 411.424 211.826C399.059 201.174 353.52 165.294 288.726 152.245C233.575 138.351 189.496 144.974 167.757 170.437C147.644 193.953 149.207 231.497 172.127 276.202C200.326 323.026 236.24 357.921 260.814 380.094C287.143 402.025 301.649 410.764 320.694 396.056C330.525 387.237 340.126 375.003 350.308 362.043C358.734 351.32 367.423 340.242 377.278 329.735C383.814 322.084 390.945 314.758 397.812 307.674C412.251 292.69 425.937 278.563 431.223 264.577Z" fill="#A7CEFC"/>
<path d="M419.725 246.14C421.948 254.437 421.017 262.866 417.187 272.386L417.05 272.651C393.052 311.601 329.089 367.187 316.526 377.935L316.22 378.131C297.02 389.033 281.643 380.157 259.992 359.994C240.47 340.771 213.124 309.479 193.548 269.465C176.733 232.302 177.554 200.873 195.85 180.922C216.181 158.773 254.703 153.553 301.54 166.568C346.167 177.126 382.528 200.559 401.654 218.976C411.464 228.66 417.367 237.338 419.725 246.14ZM413.78 271.019C421.033 252.801 417.017 239.37 398.974 221.546C380.205 203.461 344.467 180.46 300.502 170.039C255.695 157.59 217.639 162.544 198.623 183.257C181.337 202.083 180.723 232.173 196.952 267.926C216.309 307.457 243.382 338.395 262.672 357.423C283.377 376.728 297.071 384.773 314.259 375.151C350.349 344.276 395.396 300.769 413.78 271.019Z" fill="#A7CEFC"/>
<path d="M404.004 251.892C406.384 260.773 405.356 269.286 400.936 276.712C383.561 306.334 340.24 343.935 312.198 359.115C305.586 362.141 298.377 362.277 290.741 359.592C267.204 351.306 239.232 315.565 215.922 263.954C204.676 234.334 207.131 209.336 222.833 193.5C240.626 175.565 272.491 171.758 310.22 183.053C358.155 198.054 392.632 222.134 402.515 247.445C403.123 248.936 403.612 250.429 404.004 251.892ZM215.721 251.297C216.704 254.966 217.918 258.717 219.39 262.54C242.262 313.186 269.457 348.252 292.093 356.18C298.808 358.542 305.013 358.447 310.563 355.906C338.028 341.022 380.657 304.063 397.721 274.951C402.279 267.26 402.74 258.187 399.047 248.745C389.546 224.414 355.903 201.109 309.042 186.447C273.26 175.742 242.035 179.263 225.508 195.918C212.86 208.685 209.501 228.082 215.721 251.297Z" fill="#A7CEFC"/>
<path d="M388.485 255.166C390.693 263.41 389.857 271.415 385.978 278.525C372.228 303.87 336.708 333.424 309.983 341.725L309.928 341.74C285.068 348.543 254.02 314.453 236.158 260.698C229.339 237.587 232.838 218.152 246.075 205.912C261.244 191.872 286.777 189.135 316.149 198.394C351.93 209.983 378.362 229.406 386.875 250.382C387.518 252.005 388.064 253.598 388.485 255.166ZM308.946 338.298C334.864 330.213 369.337 301.538 382.681 276.9C386.78 269.389 387.02 260.717 383.4 251.769C375.263 231.747 349.657 213.071 314.888 201.81C286.883 192.983 262.701 195.415 248.584 208.489C236.427 219.755 233.235 237.882 239.683 259.611C256.651 310.584 286.443 344.441 308.946 338.298Z" fill="#A7CEFC"/>
<path d="M373.671 257.853C375.602 265.059 375.017 272.113 371.872 278.514C360.926 300.97 332.351 322.507 309.447 325.594C287.368 328.204 263.24 299.128 254.504 259.516C250.93 242.062 254.938 227.421 265.748 218.254C278.139 207.752 297.79 205.764 319.635 212.85C345.234 221.268 364.764 236.185 371.885 252.745C372.64 254.453 373.215 256.151 373.671 257.853ZM259.641 264.78C268.947 299.509 289.985 324.282 309.056 322.022C330.436 319.144 358.227 298.131 368.527 277.044C371.912 270.095 371.886 262.207 368.452 254.178C361.72 238.511 342.989 224.349 318.366 216.24C297.827 209.573 279.533 211.283 268.16 220.914C258.417 229.168 254.862 242.604 258.135 258.714C258.621 260.75 259.107 262.785 259.641 264.78Z" fill="#A7CEFC"/>
<path d="M359.448 260.183C361.002 265.98 360.66 271.714 358.421 277.045C350.641 295.518 329.048 310.51 310.283 310.465C291.692 310.288 274.59 288.079 271.35 259.962C270 247.469 273.872 236.998 282.261 230.475C291.759 223.085 305.932 221.681 321.146 226.611C338.531 232.299 351.792 242.625 357.508 254.945C358.327 256.664 358.978 258.428 359.448 260.183ZM310.394 306.872C327.431 306.924 347.852 292.675 354.98 275.773C357.514 269.764 357.216 263.089 354.125 256.45C348.868 245.176 336.076 235.265 319.899 229.966C305.927 225.445 293.069 226.638 284.576 233.218C277.22 238.922 273.849 248.262 275.066 259.479C278.029 285.447 293.892 306.705 310.394 306.872Z" fill="#A7CEFC"/>
<path d="M345.648 262.312C346.724 266.328 346.679 270.501 345.255 274.53C340.599 287.976 325.668 297.677 312 296.181C298.381 294.643 287.108 279.166 286.884 261.641C286.773 253.548 289.992 246.757 295.894 242.525C302.399 237.875 311.56 236.903 320.995 239.847C333.954 243.927 343.069 252.686 345.648 262.312ZM341.752 273.474C345.771 261.88 335.938 248.326 319.789 243.248C311.527 240.674 303.591 241.432 298.091 245.385C293.188 248.894 290.52 254.625 290.61 261.526C290.824 277.344 300.645 291.3 312.508 292.625C324.517 293.939 337.63 285.352 341.752 273.474Z" fill="#A7CEFC"/>
<path d="M332.163 264.614C332.747 266.795 332.788 269.064 332.196 271.303C330.166 278.972 322.124 284.006 314.237 282.499C306.448 281.024 300.694 272.79 301.429 264.185C301.78 260.044 303.765 256.548 307.061 254.382C310.53 252.085 315.144 251.504 319.7 252.82C326.141 254.713 330.745 259.323 332.163 264.614ZM305.612 269.448C306.902 274.262 310.54 278.16 315.066 279.028C321 280.146 327.079 276.351 328.59 270.531C330.136 264.73 325.619 258.33 318.544 256.293C315.021 255.271 311.693 255.649 309.113 257.367C306.782 258.903 305.369 261.419 305.108 264.453C305 266.164 305.185 267.853 305.612 269.448Z" fill="#A7CEFC"/>
</g>
</svg>
