<svg width="432" height="428" viewBox="0 0 432 428" fill="none" xmlns="http://www.w3.org/2000/svg">
<path d="M384.889 162.004C385.708 165.062 385.635 168.996 384.555 174.497C381.553 189.134 365.696 207.568 348.921 227.039C339.715 237.752 330.188 248.816 322.775 259.357C308.641 275.635 302.045 298.581 295.643 320.792C290.974 337.02 286.546 352.347 279.454 365.199L279.438 365.225C273.853 374.947 267.432 380.516 259.821 382.247C244.97 385.633 227.771 373.813 207.856 360.105L205.94 358.793C191.121 348.645 171.579 336.156 142.605 318.255L140.215 316.718C114.987 300.519 83.5857 280.344 59.6248 249.73C7.01789 189.648 17.1666 122.01 40.6318 95.2261C68.7064 66.3276 104.647 58.5446 178.061 65.4392C254.622 72.7443 323.836 115.819 350.033 134.002C359.18 141.865 366.613 146.339 372.039 149.591C378.9 153.735 383.393 156.423 384.889 162.004ZM276.909 363.945C283.848 351.376 288.223 336.196 292.866 320.129C299.336 297.657 306.033 274.399 320.487 257.771C327.894 247.209 337.474 236.088 346.718 225.342C363.242 206.136 378.853 187.988 381.726 174.067C384.379 160.36 380.867 158.244 370.441 151.955C364.928 148.638 357.36 144.09 348.154 136.177C322.249 118.224 253.553 75.4499 177.675 68.2038C105.32 61.3991 70.0066 68.948 42.728 97.0394C19.9729 123.039 10.239 189.049 61.8501 247.99C85.5888 278.29 116.769 298.326 141.808 314.422L144.193 315.938C173.194 333.854 192.763 346.358 207.615 356.541L209.53 357.853C228.883 371.184 245.603 382.67 259.176 379.583C265.96 378.029 271.745 372.916 276.909 363.945Z" fill="#EFF3FF"/>
<path d="M366.559 171.38C367.692 175.607 367.474 180.46 366.612 187.288L366.602 187.423C363.566 200.903 351.113 214.268 337.944 228.397C328.935 238.046 319.649 248.033 312.18 259.051C299.583 275.138 291.302 293.344 283.293 310.929C277.925 322.747 272.843 333.917 266.654 344.13L266.521 344.32C247.716 366.776 234.377 357.859 210.148 341.7C207.515 339.942 204.741 338.09 201.79 336.176C196.617 332.24 190.906 328.096 184.85 323.694C157.919 304.146 121.039 277.346 85.6086 235.093C46.1654 182.414 51.0339 132.244 73.3406 105.858C96.7954 79.1216 133.164 77.3155 196.346 83.3674C260.721 91.2986 309.816 124.106 336.187 141.737L339.128 143.698C357.026 157.265 364.36 163.173 366.559 171.38ZM363.761 186.952C366.084 168.319 363.688 165.904 337.4 145.92L334.54 144.003C308.368 126.517 259.641 93.9631 195.997 86.0999C133.875 80.138 98.1605 81.8126 75.5706 107.57C53.9789 133.104 49.414 181.917 87.9308 233.371C123.096 275.321 159.824 301.986 186.626 321.48C192.683 325.883 198.394 330.027 203.534 333.927C206.404 335.797 209.178 337.649 211.833 339.401C236.088 355.575 247.183 362.982 264.243 342.687C270.315 332.637 275.333 321.572 280.664 309.874C288.721 292.123 297.081 273.785 309.833 257.503C317.366 246.38 326.743 236.302 335.821 226.569C348.685 212.764 360.85 199.696 363.761 186.952Z" fill="#EFF3FF"/>
<path d="M351.301 179.339C352.747 184.735 352.07 190.283 350.308 197.44C346.533 209.624 335.19 221.636 323.206 234.347C316.071 241.889 308.712 249.71 302.291 258.116C291.922 270.241 283.832 283.492 275.987 296.282C269.552 306.781 263.49 316.696 256.731 325.039L256.624 325.156C238.17 343.339 224.598 333.297 199.949 315.052L199.662 314.842L195.444 311.376C171.495 291.623 138.687 264.568 109.132 223.38C76.5892 174.13 85.7579 134.771 103.462 116.019C122.34 95.9839 153.629 91.2726 211.456 99.7488C251.944 106.361 291.543 124.252 329.149 152.903C342.809 164.219 349.233 171.624 351.301 179.339ZM254.501 323.328C261.116 315.133 267.136 305.318 273.485 294.93C281.373 282.04 289.553 268.699 300.008 256.463C306.455 247.984 313.894 240.119 321.083 232.519C332.858 220.061 343.966 208.288 347.53 196.777C351.581 180.473 349.534 173.435 327.286 155.051C290.064 126.716 250.906 109.014 210.924 102.486C154.2 94.1764 123.667 98.6191 105.542 117.858C87.1759 137.316 81.8896 176.998 111.504 221.843C140.831 262.696 173.466 289.622 197.318 309.269L201.709 312.864C226.531 331.24 237.895 339.653 254.501 323.328Z" fill="#EFF3FF"/>
<path d="M337.049 185.225C338.666 191.257 338.015 197.501 335.459 204.959L335.449 205.006C331.174 216.356 320.395 227.469 309.008 239.229C303.725 244.669 298.288 250.304 293.239 256.187C285.693 264.257 278.999 272.758 272.551 280.973C264.625 291.058 257.131 300.609 249.262 307.644C232.202 320.813 219.013 311.768 199.264 295.332C180.146 278.068 152.223 250.956 130.248 214.445C111.991 178.85 110.935 148.807 127.229 129.772C144.776 109.236 179.866 103.771 223.509 114.772C274.139 124.979 309.741 153.023 319.433 161.378C329.387 170.366 335.015 177.633 337.049 185.225ZM332.735 204.15C337.488 190.209 336.419 180.555 317.457 163.447C307.917 155.227 272.778 127.543 222.783 117.474C180.228 106.753 146.216 111.863 129.443 131.51C113.923 149.655 115.129 178.625 132.814 213.119C154.572 249.249 182.284 276.175 201.246 293.284C221.561 310.206 232.754 316.949 247.45 305.6C255.035 298.796 262.443 289.355 270.3 279.355C276.802 271.081 283.506 262.534 291.111 254.426C296.154 248.523 301.656 242.87 306.954 237.404C318.096 225.842 328.656 214.941 332.735 204.15Z" fill="#EFF3FF"/>
<path d="M323.863 189.924C325.578 196.325 324.86 202.83 321.905 210.175L321.799 210.379C303.281 240.433 253.927 283.325 244.233 291.618L243.998 291.769C229.182 300.181 217.317 293.332 200.611 277.774C185.549 262.941 164.448 238.796 149.343 207.921C136.368 179.246 137.002 154.995 151.119 139.601C166.807 122.51 196.531 118.482 232.67 128.525C267.105 136.672 295.161 154.753 309.919 168.963C317.488 176.436 322.043 183.132 323.863 189.924ZM319.276 209.12C324.872 195.063 321.773 184.7 307.851 170.947C293.369 156.992 265.793 139.245 231.869 131.203C197.296 121.598 167.932 125.42 153.259 141.403C139.92 155.929 139.447 179.147 151.969 206.734C166.906 237.236 187.795 261.108 202.679 275.791C218.656 290.686 229.222 296.894 242.484 289.47C270.332 265.646 305.091 232.076 319.276 209.12Z" fill="#EFF3FF"/>
<path d="M311.733 194.362C313.569 201.215 312.776 207.783 309.365 213.513C295.959 236.37 262.532 265.383 240.895 277.096C235.792 279.431 230.23 279.536 224.338 277.464C206.177 271.071 184.594 243.493 166.607 203.669C157.93 180.814 159.824 161.525 171.94 149.306C185.669 135.468 210.256 132.53 239.368 141.245C276.355 152.82 302.958 171.4 310.584 190.931C311.053 192.081 311.431 193.233 311.733 194.362ZM166.452 193.903C167.211 196.734 168.147 199.628 169.283 202.578C186.931 241.657 207.915 268.714 225.381 274.832C230.562 276.654 235.351 276.581 239.633 274.62C260.825 263.135 293.718 234.617 306.885 212.154C310.402 206.22 310.757 199.219 307.908 191.934C300.577 173.16 274.617 155.177 238.46 143.864C210.849 135.604 186.756 138.321 174.004 151.172C164.244 161.023 161.652 175.99 166.452 193.903Z" fill="#EFF3FF"/>
<path d="M299.757 196.889C301.462 203.249 300.816 209.426 297.823 214.912C287.213 234.469 259.806 257.272 239.185 263.678L239.142 263.689C219.96 268.939 196.004 242.634 182.221 201.157C176.96 183.324 179.659 168.328 189.873 158.884C201.578 148.05 221.279 145.938 243.943 153.082C271.552 162.024 291.947 177.012 298.515 193.197C299.012 194.449 299.433 195.678 299.757 196.889ZM238.385 261.033C258.383 254.795 284.983 232.669 295.279 213.659C298.442 207.863 298.627 201.172 295.834 194.267C289.555 178.818 269.798 164.407 242.97 155.718C221.361 148.907 202.701 150.784 191.809 160.872C182.429 169.565 179.965 183.552 184.941 200.318C198.033 239.649 221.021 265.774 238.385 261.033Z" fill="#EFF3FF"/>
<path d="M288.327 198.961C289.816 204.522 289.365 209.965 286.939 214.903C278.492 232.231 256.444 248.849 238.771 251.231C221.735 253.245 203.117 230.81 196.377 200.244C193.619 186.777 196.711 175.48 205.053 168.407C214.614 160.303 229.777 158.769 246.632 164.237C266.385 170.732 281.454 182.242 286.948 195.02C287.531 196.338 287.975 197.648 288.327 198.961ZM200.34 204.306C207.521 231.103 223.754 250.219 238.469 248.475C254.967 246.254 276.41 230.04 284.358 213.77C286.97 208.407 286.949 202.321 284.3 196.126C279.105 184.037 264.652 173.109 245.653 166.852C229.805 161.708 215.689 163.028 206.914 170.459C199.396 176.828 196.653 187.195 199.178 199.625C199.553 201.196 199.928 202.767 200.34 204.306Z" fill="#EFF3FF"/>
<path d="M277.353 200.759C278.552 205.232 278.288 209.657 276.561 213.77C270.557 228.024 253.896 239.592 239.417 239.557C225.072 239.42 211.876 222.284 209.376 200.589C208.334 190.949 211.322 182.869 217.795 177.836C225.124 172.134 236.06 171.051 247.799 174.855C261.213 179.244 271.446 187.212 275.856 196.718C276.488 198.044 276.99 199.405 277.353 200.759ZM239.502 236.785C252.649 236.825 268.405 225.83 273.905 212.789C275.861 208.152 275.631 203.002 273.246 197.879C269.19 189.18 259.319 181.532 246.836 177.444C236.056 173.955 226.135 174.876 219.581 179.953C213.905 184.354 211.305 191.561 212.243 200.216C214.53 220.253 226.769 236.656 239.502 236.785Z" fill="#EFF3FF"/>
<path d="M266.704 202.402C267.534 205.5 267.5 208.72 266.401 211.83C262.808 222.205 251.287 229.69 240.741 228.536C230.232 227.349 221.534 215.407 221.362 201.884C221.276 195.64 223.759 190.4 228.313 187.135C233.333 183.546 240.401 182.796 247.681 185.068C257.681 188.216 264.714 194.974 266.704 202.402ZM263.698 211.015C266.799 202.069 259.211 191.611 246.751 187.692C240.376 185.706 234.253 186.291 230.009 189.341C226.225 192.048 224.167 196.471 224.236 201.796C224.401 214.001 231.979 224.77 241.133 225.792C250.399 226.805 260.517 220.18 263.698 211.015Z" fill="#EFF3FF"/>
<path d="M256.299 204.179C256.75 205.861 256.782 207.612 256.325 209.34C254.759 215.257 248.553 219.141 242.468 217.979C236.458 216.84 232.018 210.487 232.585 203.847C232.856 200.652 234.388 197.954 236.931 196.283C239.607 194.511 243.168 194.062 246.683 195.078C251.653 196.539 255.205 200.095 256.299 204.179ZM235.813 207.909C236.808 211.622 239.615 214.631 243.107 215.3C247.686 216.163 252.377 213.235 253.543 208.744C254.736 204.268 251.25 199.33 245.791 197.758C243.072 196.969 240.505 197.261 238.514 198.586C236.715 199.772 235.625 201.713 235.424 204.054C235.341 205.374 235.483 206.678 235.813 207.909Z" fill="#EFF3FF"/>
</svg>
